<svg width="313" height="50" viewBox="0 0 313 50" fill="none" xmlns="http://www.w3.org/2000/svg">
<path d="M7.27728e-10 37.1526C-1.35896e-05 37.5153 0.190323 37.8509 0.499297 38.0324L5.98847 41.2563C6.65411 41.6472 7.48612 41.1586 7.48615 40.3764L7.48685 17.1249C7.48685 16.762 7.67709 16.4267 7.98596 16.2452L18.1488 10.2734C19.6899 9.36777 21.5883 9.36536 23.1317 10.267L28.2742 13.2714C28.9416 13.6614 28.9428 14.6407 28.2762 15.0322L21.2651 19.1508C20.9552 19.3329 20.7647 19.6698 20.7659 20.0339L20.7866 26.5461C20.789 27.3281 21.6226 27.8142 22.2871 27.421L37.87 18.1998C38.1777 18.0178 38.3667 17.683 38.3667 17.321L38.3628 10.9817C38.3624 10.6189 38.1721 10.2837 37.8634 10.1024L23.1556 1.46622C21.6107 0.55907 19.7074 0.559459 18.1629 1.46725L0.499957 11.8483C0.191149 12.0298 0.000928057 12.3651 0.000914472 12.728L7.27728e-10 37.1526Z" fill="white"/>
<path d="M11.72 17.7783C11.0544 17.3958 10.2304 17.8851 10.2305 18.6629L10.2313 43.1638C10.2313 43.5265 10.4215 43.8617 10.7303 44.0433L18.1667 48.4144C19.7119 49.3228 21.6162 49.3228 23.1615 48.4144L41.0575 37.896C41.3665 37.7141 41.5568 37.3785 41.5565 37.0154L41.5492 26.2246C41.5489 25.8623 41.3589 25.5275 41.0509 25.346L38.1785 23.6549C37.8694 23.473 37.4885 23.4727 37.1791 23.6544L31.6795 26.8852C31.014 27.2762 31.0138 28.2535 31.6792 28.6446L33.5672 29.7545C33.8769 29.9365 34.0672 30.2732 34.0663 30.6371L34.0603 32.617C34.0593 32.979 33.869 33.3131 33.561 33.494L23.0825 39.6443C21.5712 40.5315 19.7095 40.5305 18.1991 39.6419C17.8972 39.4644 17.7112 39.1362 17.7114 38.7815L17.7186 21.8186C17.7187 21.4521 17.5248 21.1139 17.2111 20.9336L11.72 17.7783Z" fill="white"/>
<path d="M61.6758 38.8289V12.1953H73.2311C75.0263 12.1953 76.5467 12.4617 77.7935 12.9943C79.0399 13.5016 79.9749 14.2499 80.5983 15.2391C81.2464 16.203 81.5702 17.3698 81.5702 18.7395C81.5702 20.2615 81.1966 21.5424 80.4485 22.5824C79.7256 23.6224 78.6658 24.3199 77.27 24.675L77.1952 23.9521C78.3667 24.2057 79.3766 24.6496 80.2242 25.2838C81.0966 25.9179 81.7698 26.7042 82.2434 27.6427C82.7174 28.5559 82.9542 29.5958 82.9542 30.7627C82.9542 32.107 82.7296 33.2865 82.281 34.3011C81.8321 35.2903 81.184 36.1276 80.3364 36.8121C79.4887 37.497 78.4914 38.0044 77.3446 38.3343C76.2229 38.6638 74.9761 38.8289 73.6051 38.8289H61.6758ZM67.6591 33.426H73.3808C74.0787 33.426 74.6648 33.3119 75.1384 33.0836C75.6368 32.8553 76.0233 32.5255 76.2977 32.0943C76.5718 31.6378 76.709 31.0924 76.709 30.4583C76.709 29.8749 76.5593 29.3802 76.2601 28.9744C75.986 28.5686 75.587 28.2642 75.0635 28.0613C74.5401 27.833 73.9168 27.7188 73.1938 27.7188H67.6591V33.426ZM67.6591 22.8868H72.3336C72.9817 22.8868 73.5302 22.7853 73.9791 22.5824C74.4527 22.3541 74.8017 22.0497 75.0263 21.6692C75.2753 21.2634 75.4 20.7815 75.4 20.2234C75.4 19.4117 75.1259 18.7776 74.5774 18.321C74.0289 17.8391 73.2063 17.5981 72.1093 17.5981H67.6591V22.8868Z" fill="white"/>
<path d="M87.1914 38.8293V10.6738H93.175V38.8293H87.1914Z" fill="white"/>
<path d="M107.494 39.2096C105.425 39.2096 103.58 38.7529 101.96 37.8398C100.364 36.9267 99.0929 35.6837 98.1453 34.1109C97.2228 32.5384 96.7617 30.7374 96.7617 28.7082C96.7617 26.679 97.2228 24.8781 98.1453 23.3054C99.0929 21.7328 100.364 20.4899 101.96 19.5767C103.58 18.6636 105.425 18.207 107.494 18.207C109.564 18.207 111.396 18.6636 112.992 19.5767C114.612 20.4899 115.883 21.7328 116.806 23.3054C117.728 24.8781 118.19 26.679 118.19 28.7082C118.19 30.7374 117.728 32.5384 116.806 34.1109C115.883 35.6837 114.612 36.9267 112.992 37.8398C111.396 38.7529 109.564 39.2096 107.494 39.2096ZM107.494 33.9589C108.392 33.9589 109.19 33.7304 109.888 33.2739C110.586 32.8174 111.134 32.1959 111.533 31.4096C111.932 30.6233 112.119 29.7228 112.094 28.7082C112.119 27.6936 111.932 26.7931 111.533 26.0068C111.134 25.1952 110.586 24.561 109.888 24.1044C109.19 23.6479 108.392 23.4196 107.494 23.4196C106.597 23.4196 105.787 23.6479 105.064 24.1044C104.365 24.561 103.817 25.1952 103.418 26.0068C103.019 26.7931 102.832 27.6936 102.857 28.7082C102.832 29.7228 103.019 30.6233 103.418 31.4096C103.817 32.1959 104.365 32.8174 105.064 33.2739C105.787 33.7304 106.597 33.9589 107.494 33.9589Z" fill="white"/>
<path d="M130.816 39.2096C128.896 39.2096 127.176 38.7529 125.655 37.8398C124.134 36.9267 122.925 35.6837 122.027 34.1109C121.155 32.513 120.719 30.7121 120.719 28.7082C120.719 26.7044 121.155 24.9161 122.027 23.3435C122.925 21.7455 124.134 20.4899 125.655 19.5767C127.176 18.6636 128.896 18.207 130.816 18.207C132.586 18.207 134.206 18.5241 135.677 19.1582C137.173 19.7923 138.357 20.6801 139.23 21.8216L135.976 25.7785C135.627 25.3727 135.216 24.9922 134.742 24.6371C134.268 24.282 133.745 24.003 133.171 23.8001C132.598 23.5971 132 23.4957 131.377 23.4957C130.429 23.4957 129.594 23.7239 128.871 24.1805C128.148 24.6117 127.587 25.2205 127.188 26.0068C126.789 26.7931 126.59 27.6936 126.59 28.7082C126.59 29.6721 126.789 30.5472 127.188 31.3335C127.612 32.1198 128.185 32.7413 128.908 33.1979C129.631 33.6545 130.454 33.8827 131.377 33.8827C132.025 33.8827 132.623 33.8066 133.171 33.6545C133.72 33.4769 134.219 33.2232 134.667 32.8935C135.141 32.5637 135.577 32.1579 135.976 31.676L139.192 35.671C138.345 36.7616 137.16 37.624 135.64 38.2582C134.144 38.8925 132.536 39.2096 130.816 39.2096Z" fill="white"/>
<path d="M148.239 32.8938L146.033 28.328L155.308 18.6258H163.198L148.239 32.8938ZM142.48 38.8293V10.6738H148.464V38.8293H142.48ZM155.943 38.8293L148.95 29.6216L153.176 26.2735L163.011 38.8293H155.943Z" fill="white"/>
<path d="M166.523 38.8289V12.1953H178.079C179.874 12.1953 181.394 12.4617 182.641 12.9943C183.888 13.5016 184.823 14.2499 185.446 15.2391C186.094 16.203 186.418 17.3698 186.418 18.7395C186.418 20.2615 186.044 21.5424 185.296 22.5824C184.573 23.6224 183.513 24.3199 182.117 24.675L182.043 23.9521C183.214 24.2057 184.224 24.6496 185.072 25.2838C185.944 25.9179 186.617 26.7042 187.091 27.6427C187.565 28.5559 187.802 29.5958 187.802 30.7627C187.802 32.107 187.577 33.2865 187.129 34.3011C186.68 35.2903 186.032 36.1276 185.184 36.8121C184.336 37.497 183.339 38.0044 182.192 38.3343C181.071 38.6638 179.824 38.8289 178.453 38.8289H166.523ZM172.507 33.426H178.228C178.926 33.426 179.512 33.3119 179.986 33.0836C180.484 32.8553 180.871 32.5255 181.145 32.0943C181.419 31.6378 181.557 31.0924 181.557 30.4583C181.557 29.8749 181.407 29.3802 181.108 28.9744C180.833 28.5686 180.435 28.2642 179.911 28.0613C179.387 27.833 178.764 27.7188 178.041 27.7188H172.507V33.426ZM172.507 22.8868H177.181C177.829 22.8868 178.378 22.7853 178.827 22.5824C179.3 22.3541 179.649 22.0497 179.874 21.6692C180.123 21.2634 180.248 20.7815 180.248 20.2234C180.248 19.4117 179.974 18.7776 179.425 18.321C178.877 17.8391 178.054 17.5981 176.957 17.5981H172.507V22.8868Z" fill="white"/>
<path d="M201.42 39.2096C199.351 39.2096 197.506 38.7529 195.885 37.8398C194.29 36.9267 193.019 35.6837 192.071 34.1109C191.149 32.5384 190.688 30.7374 190.688 28.7082C190.688 26.679 191.149 24.8781 192.071 23.3054C193.019 21.7328 194.29 20.4899 195.885 19.5767C197.506 18.6636 199.351 18.207 201.42 18.207C203.49 18.207 205.322 18.6636 206.917 19.5767C208.538 20.4899 209.809 21.7328 210.732 23.3054C211.654 24.8781 212.115 26.679 212.115 28.7082C212.115 30.7374 211.654 32.5384 210.732 34.1109C209.809 35.6837 208.538 36.9267 206.917 37.8398C205.322 38.7529 203.49 39.2096 201.42 39.2096ZM201.42 33.9589C202.318 33.9589 203.115 33.7304 203.813 33.2739C204.512 32.8174 205.06 32.1959 205.459 31.4096C205.858 30.6233 206.045 29.7228 206.02 28.7082C206.045 27.6936 205.858 26.7931 205.459 26.0068C205.06 25.1952 204.512 24.561 203.813 24.1044C203.115 23.6479 202.318 23.4196 201.42 23.4196C200.523 23.4196 199.712 23.6479 198.989 24.1044C198.291 24.561 197.743 25.1952 197.344 26.0068C196.945 26.7931 196.758 27.6936 196.783 28.7082C196.758 29.7228 196.945 30.6233 197.344 31.4096C197.743 32.1959 198.291 32.8174 198.989 33.2739C199.712 33.7304 200.523 33.9589 201.42 33.9589Z" fill="white"/>
<path d="M225.377 39.2096C223.308 39.2096 221.463 38.7529 219.843 37.8398C218.247 36.9267 216.975 35.6837 216.028 34.1109C215.106 32.5384 214.645 30.7374 214.645 28.7082C214.645 26.679 215.106 24.8781 216.028 23.3054C216.975 21.7328 218.247 20.4899 219.843 19.5767C221.463 18.6636 223.308 18.207 225.377 18.207C227.446 18.207 229.279 18.6636 230.874 19.5767C232.495 20.4899 233.766 21.7328 234.689 23.3054C235.611 24.8781 236.072 26.679 236.072 28.7082C236.072 30.7374 235.611 32.5384 234.689 34.1109C233.766 35.6837 232.495 36.9267 230.874 37.8398C229.279 38.7529 227.446 39.2096 225.377 39.2096ZM225.377 33.9589C226.275 33.9589 227.072 33.7304 227.77 33.2739C228.468 32.8174 229.017 32.1959 229.416 31.4096C229.815 30.6233 230.002 29.7228 229.977 28.7082C230.002 27.6936 229.815 26.7931 229.416 26.0068C229.017 25.1952 228.468 24.561 227.77 24.1044C227.072 23.6479 226.275 23.4196 225.377 23.4196C224.479 23.4196 223.669 23.6479 222.946 24.1044C222.248 24.561 221.7 25.1952 221.301 26.0068C220.902 26.7931 220.715 27.6936 220.74 28.7082C220.715 29.7228 220.902 30.6233 221.301 31.4096C221.7 32.1959 222.248 32.8174 222.946 33.2739C223.669 33.7304 224.479 33.9589 225.377 33.9589Z" fill="white"/>
<path d="M246.68 39.2096C244.735 39.2096 243.015 38.8925 241.519 38.2582C240.048 37.624 238.877 36.7743 238.004 35.7089L241.631 32.513C242.404 33.2993 243.277 33.8827 244.249 34.2633C245.221 34.6183 246.144 34.7958 247.016 34.7958C247.366 34.7958 247.677 34.7579 247.951 34.6817C248.225 34.6056 248.45 34.5042 248.624 34.3774C248.824 34.225 248.973 34.0603 249.073 33.8827C249.173 33.6797 249.223 33.4515 249.223 33.1979C249.223 32.6906 248.998 32.2974 248.55 32.0184C248.325 31.8916 247.951 31.7394 247.428 31.5618C246.904 31.3842 246.231 31.1813 245.408 30.953C244.237 30.6487 243.214 30.2935 242.342 29.8877C241.494 29.4565 240.796 28.9619 240.248 28.4038C239.749 27.8712 239.363 27.2878 239.088 26.6536C238.814 25.9941 238.677 25.2585 238.677 24.4469C238.677 23.5083 238.889 22.6586 239.313 21.8977C239.762 21.1367 240.348 20.4772 241.071 19.9192C241.818 19.3611 242.666 18.9426 243.613 18.6636C244.586 18.3592 245.583 18.207 246.605 18.207C247.702 18.207 248.749 18.3338 249.746 18.5875C250.744 18.8412 251.666 19.1963 252.514 19.6528C253.386 20.1094 254.159 20.6547 254.832 21.2889L251.691 24.8654C251.242 24.4342 250.731 24.0537 250.158 23.7239C249.609 23.3688 249.036 23.0898 248.437 22.8869C247.839 22.684 247.291 22.5825 246.792 22.5825C246.418 22.5825 246.082 22.6206 245.782 22.6967C245.508 22.7474 245.271 22.8488 245.072 23.0011C244.872 23.1279 244.723 23.2927 244.623 23.4957C244.523 23.6732 244.473 23.8888 244.473 24.1425C244.473 24.3961 244.536 24.6371 244.66 24.8654C244.81 25.0937 245.01 25.2839 245.259 25.4361C245.508 25.5883 245.907 25.7659 246.456 25.9688C247.004 26.1463 247.752 26.3746 248.699 26.6536C249.871 26.9834 250.881 27.3512 251.728 27.757C252.576 28.1629 253.249 28.6448 253.748 29.2028C254.147 29.634 254.446 30.1414 254.645 30.7247C254.845 31.2828 254.944 31.8916 254.944 32.5511C254.944 33.8448 254.583 34.9988 253.86 36.0133C253.162 37.0025 252.189 37.7891 250.943 38.3723C249.696 38.9304 248.276 39.2096 246.68 39.2096Z" fill="white"/>
<path d="M260.148 38.8293V13.5273H266.131V38.8293H260.148ZM256.633 23.9524V18.6258H269.983V23.9524H256.633Z" fill="white"/>
<path d="M282.681 39.2096C280.487 39.2096 278.58 38.7656 276.959 37.8777C275.339 36.9646 274.08 35.7344 273.182 34.1871C272.285 32.6145 271.836 30.8262 271.836 28.8224C271.836 27.2751 272.085 25.8546 272.584 24.561C273.083 23.2674 273.781 22.1513 274.678 21.2128C275.575 20.2489 276.635 19.5133 277.857 19.006C279.103 18.4734 280.462 18.207 281.933 18.207C283.329 18.207 284.6 18.4607 285.747 18.968C286.919 19.4753 287.929 20.1855 288.776 21.0986C289.624 22.0118 290.272 23.0898 290.721 24.3327C291.17 25.5756 291.369 26.9327 291.319 28.4038L291.282 30.0399H275.463L274.603 26.6156H286.42L285.785 27.3385V26.5775C285.735 25.9434 285.535 25.3854 285.186 24.9034C284.862 24.3961 284.426 24.003 283.877 23.7239C283.329 23.445 282.706 23.3054 282.008 23.3054C281.035 23.3054 280.2 23.5083 279.502 23.9142C278.829 24.2947 278.318 24.8654 277.969 25.6264C277.62 26.3619 277.446 27.2751 277.446 28.3658C277.446 29.4819 277.67 30.4584 278.118 31.2955C278.592 32.1072 279.265 32.7413 280.138 33.1979C281.035 33.6545 282.095 33.8827 283.317 33.8827C284.164 33.8827 284.912 33.7559 285.56 33.5022C286.233 33.2486 286.956 32.8174 287.729 32.2086L290.534 36.2418C289.761 36.9267 288.938 37.4847 288.066 37.916C287.193 38.3472 286.296 38.6639 285.373 38.867C284.476 39.0951 283.578 39.2096 282.681 39.2096Z" fill="white"/>
<path d="M295.129 38.829V18.6256H300.813L301.075 25.2078L299.953 23.9522C300.252 22.8615 300.739 21.885 301.412 21.0226C302.11 20.1602 302.92 19.4753 303.842 18.968C304.765 18.4607 305.749 18.207 306.797 18.207C307.245 18.207 307.656 18.2451 308.031 18.3212C308.43 18.3973 308.791 18.486 309.115 18.5875L307.47 25.322C307.195 25.1444 306.821 25.0049 306.348 24.9034C305.899 24.7766 305.425 24.7132 304.927 24.7132C304.378 24.7132 303.867 24.8147 303.394 25.0176C302.92 25.1952 302.521 25.4615 302.197 25.8166C301.873 26.1717 301.611 26.5902 301.412 27.0722C301.237 27.5541 301.15 28.0994 301.15 28.7082V38.829H295.129Z" fill="white"/>
</svg>
