<svg width="112" height="112" viewBox="0 0 112 112" fill="none" xmlns="http://www.w3.org/2000/svg">
<path d="M49.5747 42.3256C45.2608 37.3643 53.499 31.4898 56.663 28.4189C56.0877 30.7813 53.3976 35.9465 57.7116 41.6164C61.3271 46.3696 52.1628 50.9052 49.5747 53.9767C50.7252 50.6692 53.0998 46.3798 49.5747 42.3256Z" fill="black"/>
<path d="M48.8136 59.8224H72.175V71.7448C72.175 81.8422 63.9892 90.0273 53.8919 90.0273C43.7945 90.0273 35.6094 81.8422 35.6094 71.7448V38.6057C35.6094 28.5084 43.7945 20.3232 53.8919 20.3232C63.9899 20.3232 72.175 28.5084 72.175 38.6057V43.7078" stroke="black" stroke-width="7.909" stroke-linecap="round"/>
<path d="M74.2734 59.8223H80.6634C84.5136 59.8223 87.6341 62.9435 87.6341 66.7923C87.6341 70.6424 84.5136 73.7629 80.6648 73.7629H74.2734" stroke="black" stroke-width="7.909"/>
<path d="M55.9962 104.418C82.7365 104.418 104.414 82.7404 104.414 56.0001C104.414 29.2598 82.7365 7.58203 55.9962 7.58203C29.2558 7.58203 7.57812 29.2598 7.57812 56.0001C7.57812 82.7404 29.2558 104.418 55.9962 104.418Z" stroke="black" stroke-width="7.909"/>
</svg>
