<svg xmlns="http://www.w3.org/2000/svg" width="56" height="56" viewBox="0 0 56 56" fill="none">
  <path d="M28.9484 50.4613L28.9289 51.037L25.8583 50.933L25.8778 50.3573L25.6924 50.1589L25.1167 50.1394L25.2467 46.3011L26.0143 46.3271L25.8908 49.9734L26.0763 50.1719L28.763 50.2629L28.9614 50.0774L29.0849 46.4311L29.8526 46.4571L29.7226 50.2954L29.1469 50.2759L28.9484 50.4613Z" fill="white"/>
  <path d="M34.0564 45.4785L34.1956 46.0375L34.4284 46.1774L34.9873 46.0381L35.9157 49.7647L35.1704 49.9503L34.2884 46.4101L34.0557 46.2702L31.2608 46.9665L32.1891 50.693L31.4438 50.8787L30.3298 46.4068L34.0564 45.4785Z" fill="white"/>
  <path d="M35.3097 45.078L35.9827 44.7078L37.8337 48.0727L40.5256 46.5919L40.8958 47.2649L37.5309 49.1159L35.3097 45.078Z" fill="white"/>
  <path fill-rule="evenodd" clip-rule="evenodd" d="M44.7029 43.1762L44.7094 42.9047L45.1265 42.5074L43.0072 40.2829L42.5901 40.6803L42.3187 40.6737L41.9213 40.2567L39.6969 42.3759L40.0942 42.793L40.0877 43.0645L39.6706 43.4619L41.7899 45.6863L42.207 45.2889L42.4784 45.2955L42.8758 45.7126L45.1002 43.5933L44.7029 43.1762ZM42.5899 40.9522L44.4443 42.8986L44.4377 43.1701L42.4914 45.0244L42.2199 45.0179L40.3655 43.0715L40.3721 42.8L42.3185 40.9456L42.5899 40.9522Z" fill="white"/>
  <path d="M45.4724 36.2753L45.7649 35.7791L46.4266 36.1691L46.0365 36.8308L45.5403 36.5383L45.2773 36.6062L43.9122 38.922L43.9801 39.185L46.296 40.5502L46.5589 40.4822L48.4116 37.3393L49.0733 37.7293L47.1231 41.0377L46.6268 40.7452L46.3639 40.8131L46.0713 41.3093L43.4246 39.7491L43.7171 39.2529L43.6492 38.9899L43.153 38.6974L44.7132 36.0507L45.2094 36.3432L45.4724 36.2753Z" fill="white"/>
  <path d="M46.9656 34.6016L47.4999 32.5581L47.3627 32.3237L46.8053 32.178L46.9511 31.6207L46.8138 31.3863L46.2565 31.2406L46.4508 30.4975L47.1939 30.6918L47.0482 31.2491L47.1854 31.4834L47.7427 31.6292L47.597 32.1865L47.7342 32.4209L48.1058 32.518L48.3401 32.3808L48.4858 31.8235L49.0432 31.9692L49.2775 31.832L49.4232 31.2746L50.9095 31.6632L50.7152 32.4063L49.4147 32.0663L49.1804 32.2035L49.0347 32.7609L48.4773 32.6151L48.243 32.7523L47.7087 34.7959L49.938 35.3788L49.7437 36.1219L45.285 34.9561L45.4793 34.213L46.9656 34.6016Z" fill="white"/>
  <path d="M49.7742 22.2221L50.3393 22.1099L50.9378 25.1234L50.3728 25.2356L50.2218 25.4614L50.3341 26.0264L46.5672 26.7746L46.4176 26.0212L49.9961 25.3105L50.147 25.0847L49.6233 22.4479L49.3975 22.297L45.819 23.0077L45.6694 22.2543L49.4363 21.5062L49.5485 22.0712L49.7742 22.2221Z" fill="white"/>
  <path d="M43.7644 18.383L44.2774 18.1209L44.361 17.8625L44.099 17.3495L47.519 15.6023L47.8684 16.2863L44.6194 17.9462L44.5358 18.2045L45.8461 20.7695L49.2661 19.0223L49.6156 19.7063L45.5116 21.803L43.7644 18.383Z" fill="white"/>
  <path d="M46.5186 14.179L45.9463 14.6913L44.9217 13.5467L42.6325 15.5957L43.657 16.7403L43.0847 17.2526L40.5234 14.391L41.0957 13.8788L42.1202 15.0234L44.4095 12.9743L43.385 11.8297L43.9573 11.3174L46.5186 14.179Z" fill="white"/>
  <path d="M41.3795 9.30296L39.2195 12.4784L40.4897 13.3424L40.0577 13.9775L36.8823 11.8175L37.3142 11.1824L38.5844 12.0464L40.7444 8.87096L41.3795 9.30296Z" fill="white"/>
  <path fill-rule="evenodd" clip-rule="evenodd" d="M32.0574 10.0378L36.4072 11.5602L37.9296 7.21037L33.5798 5.68798L33.326 6.41295L36.9509 7.68161L35.936 10.5815L32.3111 9.31283L32.0574 10.0378ZM34.0213 9.09582L35.4712 9.60328L35.725 8.87831L34.275 8.37085L34.0213 9.09582Z" fill="white"/>
  <path d="M24.0625 6.04749L23.9969 5.47517L27.0492 5.1252L27.1148 5.69751L27.3275 5.86641L27.8998 5.80079L28.3373 9.61624L27.5742 9.70374L27.1586 6.07906L26.9459 5.91016L24.2751 6.21639L24.1062 6.42904L24.5218 10.0537L23.7587 10.1412L23.3213 6.32576L23.8936 6.26014L24.0625 6.04749Z" fill="white"/>
  <path d="M19.7704 11.7255L19.5506 11.193L19.2998 11.0888L18.7673 11.3086L17.302 7.75865L18.012 7.46559L19.404 10.838L19.6548 10.9422L22.3172 9.84326L20.8519 6.29334L21.5619 6.00028L23.3203 10.2602L19.7704 11.7255Z" fill="white"/>
  <path d="M18.5769 12.3113L17.9652 12.7758L15.6429 9.71702L13.1959 11.5749L12.7314 10.9631L15.7902 8.64081L18.5769 12.3113Z" fill="white"/>
  <path fill-rule="evenodd" clip-rule="evenodd" d="M12.2805 18.6451L15.1143 15.0108L11.48 12.177L8.64621 15.8113L9.25193 16.2836L11.6135 13.255L14.0363 15.1443L11.6748 18.1728L12.2805 18.6451ZM12.0138 16.4875L12.9584 15.2761L12.3527 14.8038L11.4081 16.0152L12.0138 16.4875Z" fill="white"/>
  <path d="M11.2267 19.5456L11.7607 19.7615L10.609 22.6099L10.075 22.3939L9.82498 22.5L9.60904 23.034L6.04862 21.5944L6.33654 20.8823L8.47279 21.7461L9.33656 19.6098L10.0486 19.8978L9.18488 22.034L9.71894 22.25L9.96894 22.1439L10.9767 19.6516L10.8706 19.4016L7.48822 18.034L7.77615 17.3219L11.3366 18.7615L11.1206 19.2956L11.2267 19.5456Z" fill="white"/>
  <path d="M9.54356 24.499L10.1161 24.5625L9.77701 27.6161L9.01361 27.5314L9.33152 24.6686L9.16186 24.4566L8.78017 24.4142L8.56812 24.5838L8.25021 27.4466L7.67766 27.383L7.46562 27.5526L7.40204 28.1252L5.87524 27.9556L5.93883 27.3831L5.76917 27.1711L5.19662 27.1075L5.53573 24.0539L6.10828 24.1175L6.32032 23.9478L6.3839 23.3753L7.1473 23.46L7.06252 24.2234L6.48997 24.1599L6.27793 24.3295L5.98121 27.0014L6.15087 27.2134L7.29597 27.3406L7.50801 27.1709L7.82592 24.3082L8.39847 24.3718L8.61051 24.2021L8.67409 23.6296L9.43749 23.7144L9.37391 24.2869L9.54356 24.499Z" fill="white"/>
  <path d="M5.92919 34.1535L5.80157 33.3961L8.07381 33.0132L7.56331 29.9835L5.29108 30.3664L5.16345 29.609L9.70793 28.8433L9.83555 29.6007L8.32073 29.8559L8.83122 32.8856L10.346 32.6303L10.4737 33.3877L5.92919 34.1535Z" fill="white"/>
  <path d="M22.3965 33.1806C24.2457 31.3314 24.2457 28.3333 22.3965 26.4841L23.418 25.4625C25.8313 27.8759 25.8313 31.7888 23.418 34.2021L22.3965 33.1806Z" fill="#979797"/>
  <path d="M23.2364 34.0323C25.0856 32.183 28.0837 32.183 29.9329 34.0323L30.9544 33.0107C28.5411 30.5974 24.6282 30.5974 22.2148 33.0107L23.2364 34.0323Z" fill="#979797"/>
  <path d="M26.1871 29.0377L31.7487 23.4762L32.9405 24.6679L27.3789 30.2295L26.1871 29.0377Z" fill="#979797"/>
</svg>