<svg width="190" height="47" viewBox="0 0 190 47" fill="none" xmlns="http://www.w3.org/2000/svg">
<path fill-rule="evenodd" clip-rule="evenodd" d="M63.3297 12.2081C63.3297 8.06291 60.0389 4.7002 55.9823 4.7002H51.4061C47.3495 4.7002 44.0586 8.06291 44.0586 12.2081V34.7923C44.0586 38.9375 47.3495 42.3002 51.4061 42.3002H55.9823C60.0389 42.3002 63.3297 38.9375 63.3297 34.7923V31.5321H58.1519C58.1108 32.5893 58.0242 33.4975 57.9149 34.1449C57.7599 35.8449 56.3606 37.1723 54.6559 37.1723H52.737C50.9275 37.1723 49.4644 35.6726 49.4644 33.8282V13.1722C49.4644 11.3232 50.932 9.8281 52.737 9.8281H54.6559C55.9777 9.8281 57.1172 10.6338 57.6323 11.7889C57.8829 12.1336 58.0835 13.5634 58.1519 15.4264H63.3297V12.2127V12.2081ZM73.3848 4.76544H78.3256V4.76078C82.3822 4.76078 85.6731 8.1235 85.6731 12.2687V34.7923C85.6731 38.9375 82.3822 42.3002 78.3256 42.3002H73.3848C69.3282 42.3002 66.0373 38.9375 66.0373 34.7923V12.2733C66.0373 8.12815 69.3282 4.76544 73.3848 4.76544ZM76.9993 37.1723C78.8042 37.1723 80.2719 35.6773 80.2719 33.8282V13.2328C80.2719 11.3884 78.8088 9.88869 76.9993 9.88869H74.7157C72.9108 9.88869 71.4431 11.3837 71.4431 13.2328V33.8282C71.4431 35.6726 72.9062 37.1723 74.7157 37.1723H76.9993ZM131.399 41.9462V5.04948H137.21V36.6879H146.919V41.9462H131.399ZM183.61 41.9461L179.353 28.7421L175.096 41.9461H168.71L176.03 22.9156L169.285 5.22642H175.67L179.358 17.5036L183.045 5.22642H189.431L182.526 22.9156L190.001 41.9461H183.615H183.61ZM161.983 5.09618V33.8283C161.983 35.6773 160.515 37.1724 158.71 37.1724H156.828C155.018 37.1724 153.555 35.6727 153.555 33.8283V5.09618H148.154V34.7878C148.154 38.9329 151.445 42.2956 155.501 42.2956H160.041C164.098 42.2956 167.388 38.9329 167.388 34.7878V5.09618H161.987H161.983ZM94.8985 13.2886V41.9229H94.8939H89.4927V12.3291C89.4927 8.18397 92.7836 4.82125 96.8402 4.82125H101.38C105.437 4.82125 108.727 8.18397 108.727 12.3291V41.9182H103.326V13.2886C103.326 11.4442 101.863 9.9445 100.054 9.9445H98.1711C96.3661 9.9445 94.8985 11.4396 94.8985 13.2886ZM116.836 5.04948H128.322V10.3078H121.23C119.17 10.3078 118.636 10.9272 118.636 12.9579L118.613 12.9346V20.6521H126.968V25.9104H118.613V41.9509H112.802V8.95247C112.916 6.77742 114.68 5.04948 116.836 5.04948Z" fill="#F2F2F2"/>
<path d="M27.4978 28.2152L18.3121 37.5934L13.7448 32.9304L22.9305 23.5521L18.3492 18.8701L4.53125 32.9824L18.2611 47.0001L32.0791 32.8925L27.4978 28.2152Z" fill="#F2F2F2"/>
<path d="M36.715 18.6807L18.4178 0L0 18.8085L0.0602678 28.1252L18.3343 9.46344L36.6825 28.1962L36.715 18.6807Z" fill="#F2F2F2"/>
</svg>
