<svg xmlns="http://www.w3.org/2000/svg" width="60" height="64" viewBox="0 0 60 64" fill="none">
  <path d="M30.714 45.5683H29.734C23.4783 45.5683 18.387 40.4752 18.387 34.2134V29.5766C18.387 23.3165 23.4765 18.2217 29.734 18.2217H30.714C35.1438 18.2217 38.9871 20.7769 40.8547 24.4923H59.3696C56.9588 10.8503 45.027 0.455078 30.714 0.455078H29.734C13.6874 0.455078 0.632812 13.5188 0.632812 29.5766V34.2134C0.632812 50.2713 13.6874 63.335 29.734 63.335H30.714C45.8102 63.335 58.2556 51.7727 59.6776 37.0334H41.7059C40.4509 41.9349 35.9984 45.5683 30.714 45.5683Z" fill="#00FF00"/>
</svg>