<svg xmlns="http://www.w3.org/2000/svg" width="61" height="81" viewBox="0 0 61 81" fill="none">
  <path d="M48.1942 19.1293H42.2326H36.3181V19.1642L36.2711 19.1293H30.3565H24.3932H18.4316V13.0086V6.88954V0.770508H12.47H6.50845H0.546875V6.88954V13.0086V19.1293V25.2484V31.3674V37.4864V43.6072L0.607796 43.6786H0.546875V49.7976V55.9167V62.0357V68.1565V74.2755V80.3945H6.50845H12.47H18.4316V74.2755V68.1565V62.0357V55.9167V49.7976V43.6786H18.3602L18.4316 43.6072V37.4864H24.3932H30.3565H36.2711L36.3181 37.4307V37.4864H42.2326V43.6072L42.2727 43.6786H42.2326V49.7976V55.9167V62.0357V68.1565V74.2755V80.3945H48.1942H54.1558H60.1174V74.2755V68.1565V62.0357V55.9167V49.7976V43.6786H60.0286L60.1174 43.6072V37.4864V31.3674V25.2484V19.1293H54.1558H48.1942Z" fill="#00FF00"/>
</svg>