<svg xmlns="http://www.w3.org/2000/svg" width="77" height="64" viewBox="0 0 77 64" fill="none">
  <g clip-path="url(#clip0_3685_175)">
    <path d="M46.0815 63.8185V44.9019H49.1475V61.1228H54.27V63.8185H46.0815Z" fill="white"/>
    <path d="M73.6285 63.8183L71.3823 57.049L69.1364 63.8183H65.7671L69.6291 54.0618L66.07 44.9927H69.4394L71.385 51.287L73.3302 44.9927H76.6995L73.056 54.0618L77.0001 63.8183H73.6308H73.6285Z" fill="white"/>
    <path d="M18.0796 44.7565H15.4728C13.3325 44.7565 11.5962 46.4802 11.5962 48.6057V60.1508C11.5962 62.2759 13.3325 64 15.4728 64H18.0796C20.2199 64 21.9562 62.2759 21.9562 60.1508V48.603C21.9562 46.4779 20.2199 44.7542 18.0796 44.7542V44.7565ZM19.1065 59.6565C19.1065 60.6046 18.3321 61.371 17.3798 61.371H16.175C15.2202 61.371 14.4483 60.6022 14.4483 59.6565V49.0977C14.4483 48.1496 15.2227 47.3832 16.175 47.3832H17.3798C18.3345 47.3832 19.1065 48.1519 19.1065 49.0977V59.6565Z" fill="white"/>
    <path d="M62.2177 44.9258V59.6566C62.2177 60.6046 61.4434 61.3711 60.4911 61.3711H59.4978C58.5431 61.3711 57.7712 60.6023 57.7712 59.6566V44.9258H54.9214V60.1485C54.9214 62.2736 56.6578 63.9978 58.7978 63.9978H61.193C63.3334 63.9978 65.0698 62.2736 65.0698 60.1485V44.9258H62.2201H62.2177Z" fill="white"/>
    <path d="M26.8233 63.8064V49.1261C26.8233 48.1781 27.5977 47.4116 28.55 47.4116H29.5432C30.4979 47.4116 31.2698 48.1804 31.2698 49.1261V63.8041H34.1196V48.6342C34.1196 46.5091 32.3832 44.7849 30.243 44.7849H27.8478C25.7075 44.7849 23.9712 46.5091 23.9712 48.6342V63.8064H26.8209H26.8233Z" fill="white"/>
    <path d="M10.1676 48.5722C10.1676 46.447 8.43131 44.7229 6.29102 44.7229H3.87657C1.73628 44.7229 0 46.447 0 48.5722V60.1508C0 62.2759 1.73628 64 3.87657 64H6.29102C8.43131 64 10.1676 62.2759 10.1676 60.1508V58.4794H7.43571C7.41405 59.0215 7.36836 59.4869 7.31065 59.8188C7.2289 60.6905 6.4906 61.371 5.59121 61.371H4.57878C3.62407 61.371 2.85212 60.6022 2.85212 59.6565V49.0664C2.85212 48.1184 3.62647 47.3519 4.57878 47.3519H5.59121C6.28861 47.3519 6.88983 47.7648 7.16154 48.357C7.29381 48.534 7.39962 49.2669 7.43571 50.2223H10.1676V48.5745V48.5722Z" fill="white"/>
    <path d="M44.4581 44.9019H38.3978C37.2603 44.9019 36.3297 45.7878 36.2695 46.9028V63.8208H39.3357V55.5972H43.7437V52.9015H39.3357V48.9447L39.3477 48.9566C39.3477 47.9156 39.6289 47.598 40.7162 47.598H44.4581V44.9019Z" fill="white"/>
    <path d="M46.2443 23.1451L38.4607 30.838L34.5905 27.0129L42.3741 19.3199L38.4921 15.4792L26.7832 27.0556L38.4174 38.5542L50.1262 26.9818L46.2443 23.1451Z" fill="white"/>
    <path d="M54.0554 15.3238L38.551 0L22.9443 15.4287L22.9954 23.0712L38.4803 7.76289L54.0278 23.1294L54.0554 15.3238Z" fill="white"/>
  </g>
  <defs>
    <clipPath id="clip0_3685_175">
      <rect width="77" height="64" fill="white"/>
    </clipPath>
  </defs>
</svg>