<svg width="401" height="128" viewBox="0 0 401 128" fill="none" xmlns="http://www.w3.org/2000/svg">
<rect x="28.9688" y="11.5876" width="5.79378" height="5.79378" fill="#01FF00"/>
<rect x="34.7627" y="11.5876" width="5.79378" height="5.79378" fill="#01FF00"/>
<rect x="40.5566" y="11.5876" width="5.79378" height="5.79378" fill="#01FF00"/>
<rect x="46.3501" y="11.5876" width="5.79378" height="5.79378" fill="#01FF00"/>
<rect x="52.144" y="11.5876" width="5.79378" height="5.79378" fill="#01FF00"/>
<rect x="81.1128" y="11.5876" width="5.79378" height="5.79378" fill="#01FF00"/>
<rect x="86.9067" y="11.5876" width="5.79378" height="5.79378" fill="#01FF00"/>
<rect x="92.7007" y="11.5876" width="5.79378" height="5.79378" fill="#01FF00"/>
<rect x="98.4946" y="11.5876" width="5.79378" height="5.79378" fill="#01FF00"/>
<rect x="104.288" y="11.5876" width="5.79378" height="5.79378" fill="#01FF00"/>
<rect x="110.082" y="11.5876" width="5.79378" height="5.79378" fill="#01FF00"/>
<rect x="23.1753" y="17.3813" width="5.79378" height="5.79378" fill="#01FF00"/>
<rect x="28.9688" y="17.3813" width="5.79378" height="5.79378" fill="#FF006E"/>
<rect x="34.7627" y="17.3813" width="5.79378" height="5.79378" fill="#FF006E"/>
<rect x="40.5566" y="17.3813" width="5.79378" height="5.79378" fill="#FF006E"/>
<rect x="46.3501" y="17.3813" width="5.79378" height="5.79378" fill="#FF006E"/>
<rect x="52.144" y="17.3813" width="5.79378" height="5.79378" fill="#01FF00"/>
<rect x="57.938" y="17.3813" width="5.79378" height="5.79378" fill="#01FF00"/>
<rect x="75.3193" y="17.3813" width="5.79378" height="5.79378" fill="#01FF00"/>
<rect x="81.1128" y="17.3813" width="5.79378" height="5.79378" fill="#FF006E"/>
<rect x="86.9067" y="17.3813" width="5.79378" height="5.79378" fill="#FF006E"/>
<rect x="92.7007" y="17.3813" width="5.79378" height="5.79378" fill="#FF006E"/>
<rect x="98.4946" y="17.3813" width="5.79378" height="5.79378" fill="#FF006E"/>
<rect x="104.288" y="17.3813" width="5.79378" height="5.79378" fill="#FF006E"/>
<rect x="110.082" y="17.3813" width="5.79378" height="5.79378" fill="#01FF00"/>
<rect x="115.875" y="17.3813" width="5.79378" height="5.79378" fill="#01FF00"/>
<rect x="17.3813" y="23.175" width="5.79378" height="5.79378" fill="#01FF00"/>
<rect x="23.1753" y="23.175" width="5.79378" height="5.79378" fill="#FF006E"/>
<rect x="28.9688" y="23.175" width="5.79378" height="5.79378" fill="#FF006E"/>
<rect x="34.7627" y="23.175" width="5.79378" height="5.79378" fill="#FF006E"/>
<rect x="40.5566" y="23.175" width="5.79378" height="5.79378" fill="#FF006E"/>
<rect x="46.3501" y="23.175" width="5.79378" height="5.79378" fill="#01FF00"/>
<rect x="52.144" y="23.175" width="5.79378" height="5.79378" fill="#FF006E"/>
<rect x="57.938" y="23.175" width="5.79378" height="5.79378" fill="#01FF00"/>
<rect x="69.5254" y="23.175" width="5.79378" height="5.79378" fill="#01FF00"/>
<rect x="75.3193" y="23.175" width="5.79378" height="5.79378" fill="#FF006E"/>
<rect x="81.1128" y="23.175" width="5.79378" height="5.79378" fill="#FF006E"/>
<rect x="86.9067" y="23.175" width="5.79378" height="5.79378" fill="#FF006E"/>
<rect x="92.7007" y="23.175" width="5.79378" height="5.79378" fill="#FF006E"/>
<rect x="98.4946" y="23.175" width="5.79378" height="5.79378" fill="#FF006E"/>
<rect x="104.288" y="23.175" width="5.79378" height="5.79378" fill="#01FF00"/>
<rect x="110.082" y="23.175" width="5.79378" height="5.79378" fill="#FF006E"/>
<rect x="115.875" y="23.175" width="5.79378" height="5.79378" fill="#01FF00"/>
<rect x="11.5874" y="28.969" width="5.79378" height="5.79378" fill="#01FF00"/>
<rect x="17.3813" y="28.969" width="5.79378" height="5.79378" fill="#FF006E"/>
<rect x="23.1753" y="28.969" width="5.79378" height="5.79378" fill="#FF006E"/>
<rect x="28.9688" y="28.969" width="5.79378" height="5.79378" fill="#FF006E"/>
<rect x="34.7627" y="28.969" width="5.79378" height="5.79378" fill="#FF006E"/>
<rect x="40.5566" y="28.969" width="5.79378" height="5.79378" fill="#01FF00"/>
<rect x="46.3501" y="28.969" width="5.79378" height="5.79378" fill="#FF006E"/>
<rect x="52.144" y="28.969" width="5.79378" height="5.79378" fill="#FF006E"/>
<rect x="57.938" y="28.969" width="5.79378" height="5.79378" fill="#01FF00"/>
<rect x="69.5254" y="28.969" width="5.79378" height="5.79378" fill="#01FF00"/>
<rect x="75.3193" y="28.969" width="5.79378" height="5.79378" fill="#FF006E"/>
<rect x="81.1128" y="28.969" width="5.79378" height="5.79378" fill="#FF006E"/>
<rect x="86.9067" y="28.969" width="5.79378" height="5.79378" fill="#FF006E"/>
<rect x="92.7007" y="28.969" width="5.79378" height="5.79378" fill="#FF006E"/>
<rect x="98.4946" y="28.969" width="5.79378" height="5.79378" fill="#01FF00"/>
<rect x="104.288" y="28.969" width="5.79378" height="5.79378" fill="#FF006E"/>
<rect x="110.082" y="28.969" width="5.79378" height="5.79378" fill="#FF006E"/>
<rect x="115.875" y="28.969" width="5.79378" height="5.79378" fill="#01FF00"/>
<rect x="11.5874" y="34.7627" width="5.79378" height="5.79378" fill="#01FF00"/>
<rect x="17.3813" y="34.7627" width="5.79378" height="5.79378" fill="#01FF00"/>
<rect x="23.1753" y="34.7627" width="5.79378" height="5.79378" fill="#01FF00"/>
<rect x="28.9688" y="34.7627" width="5.79378" height="5.79378" fill="#01FF00"/>
<rect x="34.7627" y="34.7627" width="5.79378" height="5.79378" fill="#01FF00"/>
<rect x="40.5566" y="34.7627" width="5.79378" height="5.79378" fill="#FF006E"/>
<rect x="46.3501" y="34.7627" width="5.79378" height="5.79378" fill="#FF006E"/>
<rect x="52.144" y="34.7627" width="5.79378" height="5.79378" fill="#FF006E"/>
<rect x="57.938" y="34.7627" width="5.79378" height="5.79378" fill="#01FF00"/>
<rect x="69.5254" y="34.7627" width="5.79378" height="5.79378" fill="#01FF00"/>
<rect x="75.3193" y="34.7627" width="5.79378" height="5.79378" fill="#01FF00"/>
<rect x="81.1128" y="34.7627" width="5.79378" height="5.79378" fill="#01FF00"/>
<rect x="86.9067" y="34.7627" width="5.79378" height="5.79378" fill="#01FF00"/>
<rect x="92.7007" y="34.7627" width="5.79378" height="5.79378" fill="#01FF00"/>
<rect x="98.4946" y="34.7627" width="5.79378" height="5.79378" fill="#FF006E"/>
<rect x="104.288" y="34.7627" width="5.79378" height="5.79378" fill="#FF006E"/>
<rect x="110.082" y="34.7627" width="5.79378" height="5.79378" fill="#FF006E"/>
<rect x="115.875" y="34.7627" width="5.79378" height="5.79378" fill="#01FF00"/>
<rect x="11.5874" y="40.5564" width="5.79378" height="5.79378" fill="#01FF00"/>
<rect x="34.7627" y="40.5564" width="5.79378" height="5.79378" fill="#01FF00"/>
<rect x="40.5566" y="40.5564" width="5.79378" height="5.79378" fill="#FF006E"/>
<rect x="46.3501" y="40.5564" width="5.79378" height="5.79378" fill="#FF006E"/>
<rect x="52.144" y="40.5564" width="5.79378" height="5.79378" fill="#FF006E"/>
<rect x="57.938" y="40.5564" width="5.79378" height="5.79378" fill="#01FF00"/>
<rect x="69.5254" y="40.5564" width="5.79378" height="5.79378" fill="#01FF00"/>
<rect x="92.7007" y="40.5564" width="5.79378" height="5.79378" fill="#01FF00"/>
<rect x="98.4946" y="40.5564" width="5.79378" height="5.79378" fill="#FF006E"/>
<rect x="104.288" y="40.5564" width="5.79378" height="5.79378" fill="#FF006E"/>
<rect x="110.082" y="40.5564" width="5.79378" height="5.79378" fill="#FF006E"/>
<rect x="115.875" y="40.5564" width="5.79378" height="5.79378" fill="#01FF00"/>
<rect x="11.5874" y="46.3503" width="5.79378" height="5.79378" fill="#01FF00"/>
<rect x="34.7627" y="46.3503" width="5.79378" height="5.79378" fill="#01FF00"/>
<rect x="40.5566" y="46.3503" width="5.79378" height="5.79378" fill="#FF006E"/>
<rect x="46.3501" y="46.3503" width="5.79378" height="5.79378" fill="#FF006E"/>
<rect x="52.144" y="46.3503" width="5.79378" height="5.79378" fill="#FF006E"/>
<rect x="57.938" y="46.3503" width="5.79378" height="5.79378" fill="#01FF00"/>
<rect x="69.5254" y="46.3503" width="5.79378" height="5.79378" fill="#01FF00"/>
<rect x="92.7007" y="46.3503" width="5.79378" height="5.79378" fill="#01FF00"/>
<rect x="98.4946" y="46.3503" width="5.79378" height="5.79378" fill="#FF006E"/>
<rect x="104.288" y="46.3503" width="5.79378" height="5.79378" fill="#FF006E"/>
<rect x="110.082" y="46.3503" width="5.79378" height="5.79378" fill="#FF006E"/>
<rect x="115.875" y="46.3503" width="5.79378" height="5.79378" fill="#01FF00"/>
<rect x="11.5874" y="52.1438" width="5.79378" height="5.79378" fill="#01FF00"/>
<rect x="34.7627" y="52.1438" width="5.79378" height="5.79378" fill="#01FF00"/>
<rect x="40.5566" y="52.1438" width="5.79378" height="5.79378" fill="#FF006E"/>
<rect x="46.3501" y="52.1438" width="5.79378" height="5.79378" fill="#FF006E"/>
<rect x="52.144" y="52.1438" width="5.79378" height="5.79378" fill="#FF006E"/>
<rect x="57.938" y="52.1438" width="5.79378" height="5.79378" fill="#01FF00"/>
<rect x="69.5254" y="52.1438" width="5.79378" height="5.79378" fill="#01FF00"/>
<rect x="92.7007" y="52.1438" width="5.79378" height="5.79378" fill="#01FF00"/>
<rect x="98.4946" y="52.1438" width="5.79378" height="5.79378" fill="#FF006E"/>
<rect x="104.288" y="52.1438" width="5.79378" height="5.79378" fill="#FF006E"/>
<rect x="110.082" y="52.1438" width="5.79378" height="5.79378" fill="#FF006E"/>
<rect x="115.875" y="52.1438" width="5.79378" height="5.79378" fill="#01FF00"/>
<rect x="11.5874" y="57.9377" width="5.79378" height="5.79378" fill="#01FF00"/>
<rect x="34.7627" y="57.9377" width="5.79378" height="5.79378" fill="#01FF00"/>
<rect x="40.5566" y="57.9377" width="5.79378" height="5.79378" fill="#FF006E"/>
<rect x="46.3501" y="57.9377" width="5.79378" height="5.79378" fill="#FF006E"/>
<rect x="52.144" y="57.9377" width="5.79378" height="5.79378" fill="#FF006E"/>
<rect x="57.938" y="57.9377" width="5.79378" height="5.79378" fill="#01FF00"/>
<rect x="69.5254" y="57.9377" width="5.79378" height="5.79378" fill="#01FF00"/>
<rect x="92.7007" y="57.9377" width="5.79378" height="5.79378" fill="#01FF00"/>
<rect x="98.4946" y="57.9377" width="5.79378" height="5.79378" fill="#FF006E"/>
<rect x="104.288" y="57.9377" width="5.79378" height="5.79378" fill="#FF006E"/>
<rect x="110.082" y="57.9377" width="5.79378" height="5.79378" fill="#FF006E"/>
<rect x="115.875" y="57.9377" width="5.79378" height="5.79378" fill="#01FF00"/>
<rect x="11.5874" y="63.7314" width="5.79378" height="5.79378" fill="#01FF00"/>
<rect x="34.7627" y="63.7314" width="5.79378" height="5.79378" fill="#01FF00"/>
<rect x="40.5566" y="63.7314" width="5.79378" height="5.79378" fill="#FF006E"/>
<rect x="46.3501" y="63.7314" width="5.79378" height="5.79378" fill="#FF006E"/>
<rect x="52.144" y="63.7314" width="5.79378" height="5.79378" fill="#FF006E"/>
<rect x="57.938" y="63.7314" width="5.79378" height="5.79378" fill="#01FF00"/>
<rect x="69.5254" y="63.7314" width="5.79378" height="5.79378" fill="#01FF00"/>
<rect x="92.7007" y="63.7314" width="5.79378" height="5.79378" fill="#01FF00"/>
<rect x="98.4946" y="63.7314" width="5.79378" height="5.79378" fill="#FF006E"/>
<rect x="104.288" y="63.7314" width="5.79378" height="5.79378" fill="#FF006E"/>
<rect x="110.082" y="63.7314" width="5.79378" height="5.79378" fill="#FF006E"/>
<rect x="115.875" y="63.7314" width="5.79378" height="5.79378" fill="#01FF00"/>
<rect x="11.5874" y="69.5254" width="5.79378" height="5.79378" fill="#01FF00"/>
<rect x="34.7627" y="69.5254" width="5.79378" height="5.79378" fill="#01FF00"/>
<rect x="40.5566" y="69.5254" width="5.79378" height="5.79378" fill="#FF006E"/>
<rect x="46.3501" y="69.5254" width="5.79378" height="5.79378" fill="#FF006E"/>
<rect x="52.144" y="69.5254" width="5.79378" height="5.79378" fill="#FF006E"/>
<rect x="57.938" y="69.5254" width="5.79378" height="5.79378" fill="#01FF00"/>
<rect x="69.5254" y="69.5254" width="5.79378" height="5.79378" fill="#01FF00"/>
<rect x="92.7007" y="69.5254" width="5.79378" height="5.79378" fill="#01FF00"/>
<rect x="98.4946" y="69.5254" width="5.79378" height="5.79378" fill="#FF006E"/>
<rect x="104.288" y="69.5254" width="5.79378" height="5.79378" fill="#FF006E"/>
<rect x="110.082" y="69.5254" width="5.79378" height="5.79378" fill="#FF006E"/>
<rect x="115.875" y="69.5254" width="5.79378" height="5.79378" fill="#01FF00"/>
<rect x="11.5874" y="75.3191" width="5.79378" height="5.79378" fill="#01FF00"/>
<rect x="34.7627" y="75.3191" width="5.79378" height="5.79378" fill="#01FF00"/>
<rect x="40.5566" y="75.3191" width="5.79378" height="5.79378" fill="#FF006E"/>
<rect x="46.3501" y="75.3191" width="5.79378" height="5.79378" fill="#FF006E"/>
<rect x="52.144" y="75.3191" width="5.79378" height="5.79378" fill="#FF006E"/>
<rect x="57.938" y="75.3191" width="5.79378" height="5.79378" fill="#01FF00"/>
<rect x="63.7314" y="75.3191" width="5.79378" height="5.79378" fill="#01FF00"/>
<rect x="69.5254" y="75.3191" width="5.79378" height="5.79378" fill="#01FF00"/>
<rect x="92.7007" y="75.3191" width="5.79378" height="5.79378" fill="#01FF00"/>
<rect x="98.4946" y="75.3191" width="5.79378" height="5.79378" fill="#FF006E"/>
<rect x="104.288" y="75.3191" width="5.79378" height="5.79378" fill="#FF006E"/>
<rect x="110.082" y="75.3191" width="5.79378" height="5.79378" fill="#FF006E"/>
<rect x="115.875" y="75.3191" width="5.79378" height="5.79378" fill="#01FF00"/>
<rect x="11.5874" y="81.1128" width="5.79378" height="5.79378" fill="#01FF00"/>
<rect x="34.7627" y="81.1128" width="5.79378" height="5.79378" fill="#01FF00"/>
<rect x="40.5566" y="81.1128" width="5.79378" height="5.79378" fill="#FF006E"/>
<rect x="46.3501" y="81.1128" width="5.79378" height="5.79378" fill="#FF006E"/>
<rect x="52.144" y="81.1128" width="5.79378" height="5.79378" fill="#01FF00"/>
<rect x="57.938" y="81.1128" width="5.79378" height="5.79378" fill="#FF006E"/>
<rect x="63.7314" y="81.1128" width="5.79378" height="5.79378" fill="#FF006E"/>
<rect x="69.5254" y="81.1128" width="5.79378" height="5.79378" fill="#01FF00"/>
<rect x="92.7007" y="81.1128" width="5.79378" height="5.79378" fill="#01FF00"/>
<rect x="98.4946" y="81.1128" width="5.79378" height="5.79378" fill="#FF006E"/>
<rect x="104.288" y="81.1128" width="5.79378" height="5.79378" fill="#FF006E"/>
<rect x="110.082" y="81.1128" width="5.79378" height="5.79378" fill="#FF006E"/>
<rect x="115.875" y="81.1128" width="5.79378" height="5.79378" fill="#01FF00"/>
<rect x="11.5874" y="86.9067" width="5.79378" height="5.79378" fill="#01FF00"/>
<rect x="34.7627" y="86.9067" width="5.79378" height="5.79378" fill="#01FF00"/>
<rect x="40.5566" y="86.9067" width="5.79378" height="5.79378" fill="#FF006E"/>
<rect x="46.3501" y="86.9067" width="5.79378" height="5.79378" fill="#01FF00"/>
<rect x="52.144" y="86.9067" width="5.79378" height="5.79378" fill="#FF006E"/>
<rect x="57.938" y="86.9067" width="5.79378" height="5.79378" fill="#FF006E"/>
<rect x="63.7314" y="86.9067" width="5.79378" height="5.79378" fill="#FF006E"/>
<rect x="69.5254" y="86.9067" width="5.79378" height="5.79378" fill="#01FF00"/>
<rect x="92.7007" y="86.9067" width="5.79378" height="5.79378" fill="#01FF00"/>
<rect x="98.4946" y="86.9067" width="5.79378" height="5.79378" fill="#FF006E"/>
<rect x="104.288" y="86.9067" width="5.79378" height="5.79378" fill="#FF006E"/>
<rect x="110.082" y="86.9067" width="5.79378" height="5.79378" fill="#FF006E"/>
<rect x="115.875" y="86.9067" width="5.79378" height="5.79378" fill="#01FF00"/>
<rect x="11.5874" y="92.7004" width="5.79378" height="5.79378" fill="#01FF00"/>
<rect x="34.7627" y="92.7004" width="5.79378" height="5.79378" fill="#01FF00"/>
<rect x="40.5566" y="92.7004" width="5.79378" height="5.79378" fill="#01FF00"/>
<rect x="46.3501" y="92.7004" width="5.79378" height="5.79378" fill="#FF006E"/>
<rect x="52.144" y="92.7004" width="5.79378" height="5.79378" fill="#FF006E"/>
<rect x="57.938" y="92.7004" width="5.79378" height="5.79378" fill="#FF006E"/>
<rect x="63.7314" y="92.7004" width="5.79378" height="5.79378" fill="#FF006E"/>
<rect x="69.5254" y="92.7004" width="5.79378" height="5.79378" fill="#01FF00"/>
<rect x="92.7007" y="92.7004" width="5.79378" height="5.79378" fill="#01FF00"/>
<rect x="98.4946" y="92.7004" width="5.79378" height="5.79378" fill="#FF006E"/>
<rect x="104.288" y="92.7004" width="5.79378" height="5.79378" fill="#FF006E"/>
<rect x="110.082" y="92.7004" width="5.79378" height="5.79378" fill="#FF006E"/>
<rect x="115.875" y="92.7004" width="5.79378" height="5.79378" fill="#01FF00"/>
<rect x="11.5874" y="98.4941" width="5.79378" height="5.79378" fill="#01FF00"/>
<rect x="34.7627" y="98.4941" width="5.79378" height="5.79378" fill="#FF006E"/>
<rect x="40.5566" y="98.4941" width="5.79378" height="5.79378" fill="#01FF00"/>
<rect x="46.3501" y="98.4941" width="5.79378" height="5.79378" fill="#01FF00"/>
<rect x="52.144" y="98.4941" width="5.79378" height="5.79378" fill="#01FF00"/>
<rect x="57.938" y="98.4941" width="5.79378" height="5.79378" fill="#01FF00"/>
<rect x="63.7314" y="98.4941" width="5.79378" height="5.79378" fill="#01FF00"/>
<rect x="69.5254" y="98.4941" width="5.79378" height="5.79378" fill="#01FF00"/>
<rect x="92.7007" y="98.4941" width="5.79378" height="5.79378" fill="#01FF00"/>
<rect x="98.4946" y="98.4941" width="5.79378" height="5.79378" fill="#FF006E"/>
<rect x="104.288" y="98.4941" width="5.79378" height="5.79378" fill="#FF006E"/>
<rect x="110.082" y="98.4941" width="5.79378" height="5.79378" fill="#FF006E"/>
<rect x="115.875" y="98.4941" width="5.79378" height="5.79378" fill="#01FF00"/>
<rect x="11.5874" y="104.288" width="5.79378" height="5.79378" fill="#01FF00"/>
<rect x="17.3813" y="104.288" width="5.79378" height="5.79378" fill="#01FF00"/>
<rect x="23.1753" y="104.288" width="5.79378" height="5.79378" fill="#01FF00"/>
<rect x="92.7007" y="104.288" width="5.79378" height="5.79378" fill="#01FF00"/>
<rect x="98.4946" y="104.288" width="5.79378" height="5.79378" fill="#FF006E"/>
<rect x="104.288" y="104.288" width="5.79378" height="5.79378" fill="#FF006E"/>
<rect x="110.082" y="104.288" width="5.79378" height="5.79378" fill="#01FF00"/>
<rect x="23.1753" y="110.082" width="5.79378" height="5.79378" fill="#01FF00"/>
<rect x="92.7007" y="110.082" width="5.79378" height="5.79378" fill="#01FF00"/>
<rect x="98.4946" y="110.082" width="5.79378" height="5.79378" fill="#FF006E"/>
<rect x="104.288" y="110.082" width="5.79378" height="5.79378" fill="#01FF00"/>
<rect x="23.1753" y="115.876" width="5.79378" height="5.79378" fill="#01FF00"/>
<rect x="28.9688" y="115.876" width="5.79378" height="5.79378" fill="#01FF00"/>
<rect x="34.7627" y="115.876" width="5.79378" height="5.79378" fill="#01FF00"/>
<rect x="40.5566" y="115.876" width="5.79378" height="5.79378" fill="#01FF00"/>
<rect x="46.3501" y="115.876" width="5.79378" height="5.79378" fill="#01FF00"/>
<rect x="52.144" y="115.876" width="5.79378" height="5.79378" fill="#01FF00"/>
<rect x="57.938" y="115.876" width="5.79378" height="5.79378" fill="#01FF00"/>
<rect x="63.7314" y="115.876" width="5.79378" height="5.79378" fill="#01FF00"/>
<rect x="69.5254" y="115.876" width="5.79378" height="5.79378" fill="#01FF00"/>
<rect x="75.3193" y="115.876" width="5.79378" height="5.79378" fill="#01FF00"/>
<rect x="81.1128" y="115.876" width="5.79378" height="5.79378" fill="#01FF00"/>
<rect x="86.9067" y="115.876" width="5.79378" height="5.79378" fill="#01FF00"/>
<rect x="92.7007" y="115.876" width="5.79378" height="5.79378" fill="#01FF00"/>
<rect x="98.4946" y="115.876" width="5.79378" height="5.79378" fill="#01FF00"/>
<g clip-path="url(#clip0_5385_138)">
<path d="M305.614 89.1615H304.691C298.793 89.1615 293.992 84.3597 293.992 78.4559V74.0843C293.992 68.1821 298.791 63.3786 304.691 63.3786H305.614C309.791 63.3786 313.415 65.7878 315.175 69.2906H332.632C330.359 56.4287 319.109 46.6279 305.614 46.6279H304.691C289.561 46.6279 277.253 58.9446 277.253 74.0843V78.4559C277.253 93.5956 289.561 105.912 304.691 105.912H305.614C319.848 105.912 331.581 95.0111 332.922 81.1146H315.978C314.795 85.7359 310.597 89.1615 305.614 89.1615Z" fill="#00FF00"/>
<path d="M391.014 90.3455C387.417 85.3876 383.626 80.1654 380.04 75.2239V75.1828C383.078 70.9985 386.652 66.0718 389.724 61.8381C389.824 61.7002 389.926 61.5606 390.026 61.421C393.623 56.4631 397.414 51.2409 401 46.2994C398.199 46.2994 392.56 46.2994 389.759 46.2994H384.138C380.552 51.2409 376.761 56.4648 373.164 61.421C373.064 61.559 372.962 61.6985 372.862 61.8381C371.068 64.3097 369.104 66.8075 367.174 69.4663H361.553H361.506L361.553 69.3989V63.6282V57.859V52.0899V46.3208V40.55V34.7809V29.0117H355.933H350.312H344.691V34.7809V40.55V46.3208V52.0899V57.859V63.6282V69.3989L344.749 69.4663H344.691V75.2354V81.0045V86.7737V92.5444V98.3136V104.083H350.312H355.933H361.553V98.3136V92.5444V86.7737V81.0045H367.174C369.511 84.2233 371.871 87.2006 374.152 90.3455C374.252 90.4835 374.354 90.623 374.454 90.7626C377.526 94.9946 381.1 99.9213 384.138 104.107C389.145 104.107 395.993 104.107 401 104.107C397.962 99.923 394.388 94.9963 391.316 90.7626C391.216 90.623 391.116 90.4835 391.014 90.3455Z" fill="#00FF00"/>
<path d="M266.002 81.0046V75.2354V69.4663H265.963L266.002 69.399V63.6282V57.8591V52.0899V46.3208H260.382H254.761H249.14H243.52H237.899H232.278H226.657H221.035V52.0899V57.8591V63.6282H226.657H232.278H237.899H243.52H249.14V69.399L249.196 69.4663H249.14V72.0233C247.831 70.918 246.382 69.9655 244.821 69.197C242.624 68.1098 240.2 67.3971 237.705 67.1097C236.458 66.9701 235.178 66.934 233.89 67.021C232.601 67.1114 231.302 67.3117 230.02 67.6484C227.457 68.3167 224.956 69.5074 222.75 71.2186C220.544 72.9248 218.633 75.1665 217.295 77.8088C217.126 78.1373 216.975 78.4772 216.819 78.8138C216.67 79.1538 216.539 79.5036 216.404 79.8517C216.276 80.2032 216.161 80.5595 216.046 80.9159C215.938 81.2755 215.846 81.6401 215.753 82.003C215.67 82.3693 215.595 82.7388 215.523 83.1083C215.462 83.4794 215.405 83.8522 215.357 84.225C215.321 84.5994 215.288 84.9738 215.26 85.3483C215.244 85.7227 215.232 86.0971 215.224 86.4715C215.232 86.846 215.244 87.2204 215.26 87.5948C215.288 87.9692 215.321 88.3437 215.357 88.7181C215.405 89.0909 215.462 89.4637 215.523 89.8348C215.595 90.2043 215.67 90.5722 215.753 90.94C215.846 91.303 215.938 91.6675 216.046 92.0272C216.163 92.3835 216.276 92.7399 216.404 93.0913C216.539 93.4395 216.67 93.7893 216.819 94.1292C216.975 94.4659 217.126 94.8058 217.295 95.1343C218.633 97.775 220.546 100.017 222.75 101.725C224.957 103.437 227.457 104.626 230.02 105.295C231.302 105.631 232.601 105.832 233.89 105.922C235.178 106.009 236.458 105.973 237.705 105.833C240.201 105.546 242.624 104.833 244.821 103.746C246.382 102.978 247.831 102.025 249.14 100.92V104.084H254.761H260.382H266.002H271.623V98.3136V92.5445V86.7737H266.002V81.0046ZM246.521 89.6985C245.961 90.6789 245.138 91.523 244.166 92.1356C243.196 92.7514 242.085 93.1324 240.971 93.2687C239.853 93.4034 238.742 93.3015 237.705 93.0207C235.621 92.4459 234.093 91.1683 233.225 89.9005C232.787 89.265 232.51 88.6393 232.349 88.0776C232.188 87.5111 232.126 87.0135 232.126 86.4715C232.126 85.9296 232.188 85.432 232.349 84.8654C232.511 84.3038 232.787 83.6781 233.225 83.0426C234.093 81.7748 235.621 80.4971 237.705 79.9223C238.742 79.6399 239.853 79.5397 240.971 79.6744C242.085 79.809 243.196 80.1917 244.166 80.8075C245.138 81.4201 245.96 82.2642 246.521 83.2446C247.084 84.225 247.383 85.3351 247.384 86.4715C247.383 87.608 247.084 88.7181 246.521 89.6985Z" fill="#00FF00"/>
<path d="M192.932 46.3208H187.311H181.735V46.3536L181.69 46.3208H176.114H170.492H164.871V40.55V34.7809V29.0117H159.25H153.629H148.009V34.7809V40.55V46.3208V52.0899V57.859V63.6282V69.3989L148.066 69.4663H148.009V75.2354V81.0045V86.7737V92.5445V98.3136V104.083H153.629H159.25H164.871V98.3136V92.5445V86.7737V81.0045V75.2354V69.4663H164.804L164.871 69.3989V63.6282H170.492H176.114H181.69L181.735 63.5756V63.6282H187.311V69.3989L187.349 69.4663H187.311V75.2354V81.0045V86.7737V92.5445V98.3136V104.083H192.932H198.552H204.173V98.3136V92.5445V86.7737V81.0045V75.2354V69.4663H204.089L204.173 69.3989V63.6282V57.859V52.0899V46.3208H198.552H192.932Z" fill="#00FF00"/>
</g>
<defs>
<clipPath id="clip0_5385_138">
<rect width="252.991" height="76.9546" fill="white" transform="translate(148.009 29.0117)"/>
</clipPath>
</defs>
</svg>
