<svg xmlns="http://www.w3.org/2000/svg" width="239" height="48" viewBox="0 0 239 48" fill="none">
<path fill-rule="evenodd" clip-rule="evenodd" d="M4.28614 3.26585C4.45996 3.79858 4.52836 4.42944 4.52988 5.21518L1.06068 28.2852C0.630461 31.8343 0.710987 34.471 1.49428 36.4467C0.73709 34.3161 0.705811 31.6001 1.11901 28.1913L1.12034 28.1804L4.58236 5.15813C4.57668 4.28807 4.48034 3.70727 4.28614 3.26585ZM36.9361 6.20024L31.2062 45.3204L27.1024 41.9633L32.7766 2.94125L36.9361 6.20024ZM24.1532 1.31693L24.1092 1.316L19.2839 33.9656L19.3279 33.967L24.1532 1.31693ZM17.5041 5.79509L13.2266 33.8438C11.6734 33.9107 10.7562 33.6272 10.2336 33.126C9.64932 32.5656 9.31878 31.4995 9.53493 29.4934L13.5731 2.74235L17.5041 5.79509ZM2.33228 0.81878L1.65656 0.786865C1.87158 0.891907 2.07166 0.995668 2.25769 1.09948L2.33228 0.81878ZM10.3109 43.6622C9.50567 43.1454 8.7148 42.5214 7.89414 41.7739C9.40233 42.2225 11.1597 42.5449 13.1742 42.7947L13.2157 42.7998L25.9473 43.0675L29.5505 46.0151L16.5465 45.6881C14.0163 45.4574 12.1112 44.8176 10.3109 43.6622ZM25.6558 2.11675L31.259 2.23504L25.5517 41.485L13.3339 41.2282C8.82783 40.6662 6.07921 39.7692 4.47706 38.2354C2.60778 36.4458 2.08463 33.5614 2.71049 28.3882L6.18674 5.27125L6.18663 5.21276C6.18424 3.98076 6.02799 2.96928 5.47118 2.10724C5.37886 1.96433 5.27757 1.82868 5.16743 1.69919L12.0599 2.02473L7.94341 29.2947L7.94168 29.3105C7.70879 31.4492 7.9778 33.1633 9.11239 34.2514C10.2301 35.3234 11.9497 35.5558 13.9937 35.3685L20.7093 35.5865L25.6558 2.11675Z" fill="url(#paint0_linear_2802_207)"/>
<path d="M48.3921 30.0412V25.9116H68.4103V30.0412H48.3921Z" fill="white"/>
<path d="M74.8057 42.8832V6.62354H78.9633V22.6886H108.477V6.62354H112.686V42.8832H108.477V26.8182H78.9633V42.8832H74.8057Z" fill="white"/>
<path d="M118.517 42.8832V12.6668C118.517 11.5589 118.79 10.5517 119.338 9.64517C119.885 8.70508 120.621 7.96647 121.545 7.42931C122.503 6.8921 123.547 6.62354 124.676 6.62354H149.314C150.443 6.62354 151.47 6.8921 152.394 7.42931C153.352 7.96647 154.104 8.70508 154.652 9.64517C155.199 10.5517 155.473 11.5589 155.473 12.6668V42.8832H151.316V29.6384H122.674V42.8832H118.517ZM122.674 25.5591H151.316V12.6668C151.316 12.1296 151.11 11.6764 150.7 11.3071C150.323 10.9042 149.861 10.7027 149.314 10.7027H124.676C124.128 10.7027 123.649 10.9042 123.239 11.3071C122.862 11.6764 122.674 12.1296 122.674 12.6668V25.5591Z" fill="white"/>
<path d="M167.481 42.8832C166.352 42.8832 165.308 42.6145 164.35 42.0774C163.426 41.5404 162.69 40.8184 162.143 39.9119C161.595 38.9718 161.322 37.9479 161.322 36.8399V12.6668C161.322 11.5589 161.595 10.5517 162.143 9.64517C162.69 8.70508 163.426 7.96647 164.35 7.42931C165.308 6.8921 166.352 6.62354 167.481 6.62354H198.176V10.7027H167.481C166.933 10.7027 166.455 10.9042 166.044 11.3071C165.667 11.6764 165.479 12.1296 165.479 12.6668V36.8399C165.479 37.3771 165.667 37.8471 166.044 38.25C166.455 38.6193 166.933 38.804 167.481 38.804H198.176V42.8832H167.481Z" fill="white"/>
<path d="M203.579 42.8832V6.62354H207.788V22.6886H219.696L233.452 6.62354H238.791V6.6739L223.341 24.7534L238.842 42.8328V42.8832H233.452L219.696 26.8182H207.788V42.8832H203.579Z" fill="white"/>
<defs>
<linearGradient id="paint0_linear_2802_207" x1="18.8911" y1="0.786865" x2="16.8787" y2="48.6159" gradientUnits="userSpaceOnUse">
<stop stop-color="#4556F0"/>
<stop offset="1" stop-color="#D458DE"/>
</linearGradient>
</defs>
</svg>