<svg width="458" height="438" viewBox="0 0 458 438" fill="none" xmlns="http://www.w3.org/2000/svg">
<rect x="99.5469" y="39.8184" width="19.9091" height="19.9091" fill="#01FF00"/>
<rect x="119.453" y="39.8184" width="19.9091" height="19.9091" fill="#01FF00"/>
<rect x="139.359" y="39.8184" width="19.9091" height="19.9091" fill="#01FF00"/>
<rect x="159.266" y="39.8184" width="19.9091" height="19.9091" fill="#01FF00"/>
<rect x="179.188" y="39.8184" width="19.9091" height="19.9091" fill="#01FF00"/>
<rect x="278.734" y="39.8184" width="19.9091" height="19.9091" fill="#01FF00"/>
<rect x="298.641" y="39.8184" width="19.9091" height="19.9091" fill="#01FF00"/>
<rect x="318.547" y="39.8184" width="19.9091" height="19.9091" fill="#01FF00"/>
<rect x="338.453" y="39.8184" width="19.9091" height="19.9091" fill="#01FF00"/>
<rect x="358.359" y="39.8184" width="19.9091" height="19.9091" fill="#01FF00"/>
<rect x="378.266" y="39.8184" width="19.9091" height="19.9091" fill="#01FF00"/>
<rect x="79.6406" y="59.7275" width="19.9091" height="19.9091" fill="#01FF00"/>
<rect x="99.5469" y="59.7275" width="19.9091" height="19.9091" fill="#FF006E"/>
<rect x="119.453" y="59.7275" width="19.9091" height="19.9091" fill="#FF006E"/>
<rect x="139.359" y="59.7275" width="19.9091" height="19.9091" fill="#FF006E"/>
<rect x="159.266" y="59.7275" width="19.9091" height="19.9091" fill="#FF006E"/>
<rect x="179.188" y="59.7275" width="19.9091" height="19.9091" fill="#01FF00"/>
<rect x="199.094" y="59.7275" width="19.9091" height="19.9091" fill="#01FF00"/>
<rect x="258.812" y="59.7275" width="19.9091" height="19.9091" fill="#01FF00"/>
<rect x="278.734" y="59.7275" width="19.9091" height="19.9091" fill="#FF006E"/>
<rect x="298.641" y="59.7275" width="19.9091" height="19.9091" fill="#FF006E"/>
<rect x="318.547" y="59.7275" width="19.9091" height="19.9091" fill="#FF006E"/>
<rect x="338.453" y="59.7275" width="19.9091" height="19.9091" fill="#FF006E"/>
<rect x="358.359" y="59.7275" width="19.9091" height="19.9091" fill="#FF006E"/>
<rect x="378.266" y="59.7275" width="19.9091" height="19.9091" fill="#01FF00"/>
<rect x="398.188" y="59.7275" width="19.9091" height="19.9091" fill="#01FF00"/>
<rect x="59.7344" y="79.6367" width="19.9091" height="19.9091" fill="#01FF00"/>
<rect x="79.6406" y="79.6367" width="19.9091" height="19.9091" fill="#FF006E"/>
<rect x="99.5469" y="79.6367" width="19.9091" height="19.9091" fill="#FF006E"/>
<rect x="119.453" y="79.6367" width="19.9091" height="19.9091" fill="#FF006E"/>
<rect x="139.359" y="79.6367" width="19.9091" height="19.9091" fill="#FF006E"/>
<rect x="159.266" y="79.6367" width="19.9091" height="19.9091" fill="#01FF00"/>
<rect x="179.188" y="79.6367" width="19.9091" height="19.9091" fill="#FF006E"/>
<rect x="199.094" y="79.6367" width="19.9091" height="19.9091" fill="#01FF00"/>
<rect x="238.906" y="79.6367" width="19.9091" height="19.9091" fill="#01FF00"/>
<rect x="258.812" y="79.6367" width="19.9091" height="19.9091" fill="#FF006E"/>
<rect x="278.734" y="79.6367" width="19.9091" height="19.9091" fill="#FF006E"/>
<rect x="298.641" y="79.6367" width="19.9091" height="19.9091" fill="#FF006E"/>
<rect x="318.547" y="79.6367" width="19.9091" height="19.9091" fill="#FF006E"/>
<rect x="338.453" y="79.6367" width="19.9091" height="19.9091" fill="#FF006E"/>
<rect x="378.266" y="79.6367" width="19.9091" height="19.9091" fill="#FF006E"/>
<rect x="398.188" y="79.6367" width="19.9091" height="19.9091" fill="#01FF00"/>
<rect x="39.8125" y="99.5459" width="19.9091" height="19.9091" fill="#01FF00"/>
<rect x="59.7344" y="99.5459" width="19.9091" height="19.9091" fill="#FF006E"/>
<rect x="79.6406" y="99.5459" width="19.9091" height="19.9091" fill="#FF006E"/>
<rect x="99.5469" y="99.5459" width="19.9091" height="19.9091" fill="#FF006E"/>
<rect x="119.453" y="99.5459" width="19.9091" height="19.9091" fill="#FF006E"/>
<rect x="139.359" y="99.5459" width="19.9091" height="19.9091" fill="#01FF00"/>
<rect x="159.266" y="99.5459" width="19.9091" height="19.9091" fill="#FF006E"/>
<rect x="179.188" y="99.5459" width="19.9091" height="19.9091" fill="#FF006E"/>
<rect x="199.094" y="99.5459" width="19.9091" height="19.9091" fill="#01FF00"/>
<rect x="238.906" y="99.5459" width="19.9091" height="19.9091" fill="#01FF00"/>
<rect x="258.812" y="99.5459" width="19.9091" height="19.9091" fill="#FF006E"/>
<rect x="278.734" y="99.5459" width="19.9091" height="19.9091" fill="#FF006E"/>
<rect x="298.641" y="99.5459" width="19.9091" height="19.9091" fill="#FF006E"/>
<rect x="318.547" y="99.5459" width="19.9091" height="19.9091" fill="#FF006E"/>
<rect x="338.453" y="99.5459" width="19.9091" height="19.9091" fill="#01FF00"/>
<rect x="358" y="80" width="19.9091" height="19.9091" fill="#01FF00"/>
<rect x="358.359" y="99.5459" width="19.9091" height="19.9091" fill="#FF006E"/>
<rect x="378.266" y="99.5459" width="19.9091" height="19.9091" fill="#FF006E"/>
<rect x="398.188" y="99.5459" width="19.9091" height="19.9091" fill="#01FF00"/>
<rect x="39.8125" y="119.454" width="19.9091" height="19.9091" fill="#01FF00"/>
<rect x="59.7344" y="119.454" width="19.9091" height="19.9091" fill="#01FF00"/>
<rect x="79.6406" y="119.454" width="19.9091" height="19.9091" fill="#01FF00"/>
<rect x="99.5469" y="119.454" width="19.9091" height="19.9091" fill="#01FF00"/>
<rect x="119.453" y="119.454" width="19.9091" height="19.9091" fill="#01FF00"/>
<rect x="139.359" y="119.454" width="19.9091" height="19.9091" fill="#FF006E"/>
<rect x="159.266" y="119.454" width="19.9091" height="19.9091" fill="#FF006E"/>
<rect x="179.188" y="119.454" width="19.9091" height="19.9091" fill="#FF006E"/>
<rect x="199.094" y="119.454" width="19.9091" height="19.9091" fill="#01FF00"/>
<rect x="238.906" y="119.454" width="19.9091" height="19.9091" fill="#01FF00"/>
<rect x="258.812" y="119.454" width="19.9091" height="19.9091" fill="#01FF00"/>
<rect x="278.734" y="119.454" width="19.9091" height="19.9091" fill="#01FF00"/>
<rect x="298.641" y="119.454" width="19.9091" height="19.9091" fill="#01FF00"/>
<rect x="318.547" y="119.454" width="19.9091" height="19.9091" fill="#01FF00"/>
<rect x="338.453" y="119.454" width="19.9091" height="19.9091" fill="#FF006E"/>
<rect x="358.359" y="119.454" width="19.9091" height="19.9091" fill="#FF006E"/>
<rect x="378.266" y="119.454" width="19.9091" height="19.9091" fill="#FF006E"/>
<rect x="398.188" y="119.454" width="19.9091" height="19.9091" fill="#01FF00"/>
<rect x="39.8125" y="139.364" width="19.9091" height="19.9091" fill="#01FF00"/>
<rect x="119.453" y="139.364" width="19.9091" height="19.9091" fill="#01FF00"/>
<rect x="139.359" y="139.364" width="19.9091" height="19.9091" fill="#FF006E"/>
<rect x="159.266" y="139.364" width="19.9091" height="19.9091" fill="#FF006E"/>
<rect x="179.188" y="139.364" width="19.9091" height="19.9091" fill="#FF006E"/>
<rect x="199.094" y="139.364" width="19.9091" height="19.9091" fill="#01FF00"/>
<rect x="238.906" y="139.364" width="19.9091" height="19.9091" fill="#01FF00"/>
<rect x="318.547" y="139.364" width="19.9091" height="19.9091" fill="#01FF00"/>
<rect x="338.453" y="139.364" width="19.9091" height="19.9091" fill="#FF006E"/>
<rect x="358.359" y="139.364" width="19.9091" height="19.9091" fill="#FF006E"/>
<rect x="378.266" y="139.364" width="19.9091" height="19.9091" fill="#FF006E"/>
<rect x="398.188" y="139.364" width="19.9091" height="19.9091" fill="#01FF00"/>
<rect x="39.8125" y="159.272" width="19.9091" height="19.9091" fill="#01FF00"/>
<rect x="119.453" y="159.272" width="19.9091" height="19.9091" fill="#01FF00"/>
<rect x="139.359" y="159.272" width="19.9091" height="19.9091" fill="#FF006E"/>
<rect x="159.266" y="159.272" width="19.9091" height="19.9091" fill="#FF006E"/>
<rect x="179.188" y="159.272" width="19.9091" height="19.9091" fill="#FF006E"/>
<rect x="199.094" y="159.272" width="19.9091" height="19.9091" fill="#01FF00"/>
<rect x="238.906" y="159.272" width="19.9091" height="19.9091" fill="#01FF00"/>
<rect x="318.547" y="159.272" width="19.9091" height="19.9091" fill="#01FF00"/>
<rect x="338.453" y="159.272" width="19.9091" height="19.9091" fill="#FF006E"/>
<rect x="358.359" y="159.272" width="19.9091" height="19.9091" fill="#FF006E"/>
<rect x="378.266" y="159.272" width="19.9091" height="19.9091" fill="#FF006E"/>
<rect x="398.188" y="159.272" width="19.9091" height="19.9091" fill="#01FF00"/>
<rect x="39.8125" y="179.182" width="19.9091" height="19.9091" fill="#01FF00"/>
<rect x="119.453" y="179.182" width="19.9091" height="19.9091" fill="#01FF00"/>
<rect x="139.359" y="179.182" width="19.9091" height="19.9091" fill="#FF006E"/>
<rect x="159.266" y="179.182" width="19.9091" height="19.9091" fill="#FF006E"/>
<rect x="179.188" y="179.182" width="19.9091" height="19.9091" fill="#FF006E"/>
<rect x="199.094" y="179.182" width="19.9091" height="19.9091" fill="#01FF00"/>
<rect x="238.906" y="179.182" width="19.9091" height="19.9091" fill="#01FF00"/>
<rect x="318.547" y="179.182" width="19.9091" height="19.9091" fill="#01FF00"/>
<rect x="338.453" y="179.182" width="19.9091" height="19.9091" fill="#FF006E"/>
<rect x="358.359" y="179.182" width="19.9091" height="19.9091" fill="#FF006E"/>
<rect x="378.266" y="179.182" width="19.9091" height="19.9091" fill="#FF006E"/>
<rect x="398.188" y="179.182" width="19.9091" height="19.9091" fill="#01FF00"/>
<rect x="39.8125" y="199.091" width="19.9091" height="19.9091" fill="#01FF00"/>
<rect x="119.453" y="199.091" width="19.9091" height="19.9091" fill="#01FF00"/>
<rect x="139.359" y="199.091" width="19.9091" height="19.9091" fill="#FF006E"/>
<rect x="159.266" y="199.091" width="19.9091" height="19.9091" fill="#FF006E"/>
<rect x="179.188" y="199.091" width="19.9091" height="19.9091" fill="#FF006E"/>
<rect x="199.094" y="199.091" width="19.9091" height="19.9091" fill="#01FF00"/>
<rect x="238.906" y="199.091" width="19.9091" height="19.9091" fill="#01FF00"/>
<rect x="318.547" y="199.091" width="19.9091" height="19.9091" fill="#01FF00"/>
<rect x="338.453" y="199.091" width="19.9091" height="19.9091" fill="#FF006E"/>
<rect x="358.359" y="199.091" width="19.9091" height="19.9091" fill="#FF006E"/>
<rect x="378.266" y="199.091" width="19.9091" height="19.9091" fill="#FF006E"/>
<rect x="398.188" y="199.091" width="19.9091" height="19.9091" fill="#01FF00"/>
<rect x="39.8125" y="219" width="19.9091" height="19.9091" fill="#01FF00"/>
<rect x="119.453" y="219" width="19.9091" height="19.9091" fill="#01FF00"/>
<rect x="139.359" y="219" width="19.9091" height="19.9091" fill="#FF006E"/>
<rect x="159.266" y="219" width="19.9091" height="19.9091" fill="#FF006E"/>
<rect x="179.188" y="219" width="19.9091" height="19.9091" fill="#FF006E"/>
<rect x="199.094" y="219" width="19.9091" height="19.9091" fill="#01FF00"/>
<rect x="238.906" y="219" width="19.9091" height="19.9091" fill="#01FF00"/>
<rect x="318.547" y="219" width="19.9091" height="19.9091" fill="#01FF00"/>
<rect x="338.453" y="219" width="19.9091" height="19.9091" fill="#FF006E"/>
<rect x="358.359" y="219" width="19.9091" height="19.9091" fill="#FF006E"/>
<rect x="378.266" y="219" width="19.9091" height="19.9091" fill="#FF006E"/>
<rect x="398.188" y="219" width="19.9091" height="19.9091" fill="#01FF00"/>
<rect x="39.8125" y="238.909" width="19.9091" height="19.9091" fill="#01FF00"/>
<rect x="119.453" y="238.909" width="19.9091" height="19.9091" fill="#01FF00"/>
<rect x="139.359" y="238.909" width="19.9091" height="19.9091" fill="#FF006E"/>
<rect x="159.266" y="238.909" width="19.9091" height="19.9091" fill="#FF006E"/>
<rect x="179.188" y="238.909" width="19.9091" height="19.9091" fill="#FF006E"/>
<rect x="199.094" y="238.909" width="19.9091" height="19.9091" fill="#01FF00"/>
<rect x="238.906" y="238.909" width="19.9091" height="19.9091" fill="#01FF00"/>
<rect x="318.547" y="238.909" width="19.9091" height="19.9091" fill="#01FF00"/>
<rect x="338.453" y="238.909" width="19.9091" height="19.9091" fill="#FF006E"/>
<rect x="358.359" y="238.909" width="19.9091" height="19.9091" fill="#FF006E"/>
<rect x="378.266" y="238.909" width="19.9091" height="19.9091" fill="#FF006E"/>
<rect x="398.188" y="238.909" width="19.9091" height="19.9091" fill="#01FF00"/>
<rect x="39.8125" y="258.818" width="19.9091" height="19.9091" fill="#01FF00"/>
<rect x="119.453" y="258.818" width="19.9091" height="19.9091" fill="#01FF00"/>
<rect x="139.359" y="258.818" width="19.9091" height="19.9091" fill="#FF006E"/>
<rect x="159.266" y="258.818" width="19.9091" height="19.9091" fill="#FF006E"/>
<rect x="179.188" y="258.818" width="19.9091" height="19.9091" fill="#FF006E"/>
<rect x="199.094" y="258.818" width="19.9091" height="19.9091" fill="#01FF00"/>
<rect x="219" y="258.818" width="19.9091" height="19.9091" fill="#01FF00"/>
<rect x="238.906" y="258.818" width="19.9091" height="19.9091" fill="#01FF00"/>
<rect x="318.547" y="258.818" width="19.9091" height="19.9091" fill="#01FF00"/>
<rect x="338.453" y="258.818" width="19.9091" height="19.9091" fill="#FF006E"/>
<rect x="358.359" y="258.818" width="19.9091" height="19.9091" fill="#FF006E"/>
<rect x="378.266" y="258.818" width="19.9091" height="19.9091" fill="#FF006E"/>
<rect x="398.188" y="258.818" width="19.9091" height="19.9091" fill="#01FF00"/>
<rect x="39.8125" y="278.727" width="19.9091" height="19.9091" fill="#01FF00"/>
<rect x="119.453" y="278.727" width="19.9091" height="19.9091" fill="#01FF00"/>
<rect x="139.359" y="278.727" width="19.9091" height="19.9091" fill="#FF006E"/>
<rect x="159.266" y="278.727" width="19.9091" height="19.9091" fill="#FF006E"/>
<rect x="179.188" y="278.727" width="19.9091" height="19.9091" fill="#01FF00"/>
<rect x="199.094" y="278.727" width="19.9091" height="19.9091" fill="#FF006E"/>
<rect x="219" y="278.727" width="19.9091" height="19.9091" fill="#FF006E"/>
<rect x="238.906" y="278.727" width="19.9091" height="19.9091" fill="#01FF00"/>
<rect x="318.547" y="278.727" width="19.9091" height="19.9091" fill="#01FF00"/>
<rect x="338.453" y="278.727" width="19.9091" height="19.9091" fill="#FF006E"/>
<rect x="358.359" y="278.727" width="19.9091" height="19.9091" fill="#FF006E"/>
<rect x="378.266" y="278.727" width="19.9091" height="19.9091" fill="#FF006E"/>
<rect x="398.188" y="278.727" width="19.9091" height="19.9091" fill="#01FF00"/>
<rect x="39.8125" y="298.637" width="19.9091" height="19.9091" fill="#01FF00"/>
<rect x="119.453" y="298.637" width="19.9091" height="19.9091" fill="#01FF00"/>
<rect x="139.359" y="298.637" width="19.9091" height="19.9091" fill="#FF006E"/>
<rect x="159.266" y="298.637" width="19.9091" height="19.9091" fill="#01FF00"/>
<rect x="179.188" y="298.637" width="19.9091" height="19.9091" fill="#FF006E"/>
<rect x="199.094" y="298.637" width="19.9091" height="19.9091" fill="#FF006E"/>
<rect x="219" y="298.637" width="19.9091" height="19.9091" fill="#FF006E"/>
<rect x="238.906" y="298.637" width="19.9091" height="19.9091" fill="#01FF00"/>
<rect x="318.547" y="298.637" width="19.9091" height="19.9091" fill="#01FF00"/>
<rect x="338.453" y="298.637" width="19.9091" height="19.9091" fill="#FF006E"/>
<rect x="358.359" y="298.637" width="19.9091" height="19.9091" fill="#FF006E"/>
<rect x="378.266" y="298.637" width="19.9091" height="19.9091" fill="#FF006E"/>
<rect x="398.188" y="298.637" width="19.9091" height="19.9091" fill="#01FF00"/>
<rect x="39.8125" y="318.545" width="19.9091" height="19.9091" fill="#01FF00"/>
<rect x="119.453" y="318.545" width="19.9091" height="19.9091" fill="#01FF00"/>
<rect x="139.359" y="318.545" width="19.9091" height="19.9091" fill="#01FF00"/>
<rect x="159.266" y="318.545" width="19.9091" height="19.9091" fill="#FF006E"/>
<rect x="179.188" y="318.545" width="19.9091" height="19.9091" fill="#FF006E"/>
<rect x="199.094" y="318.545" width="19.9091" height="19.9091" fill="#FF006E"/>
<rect x="219" y="318.545" width="19.9091" height="19.9091" fill="#FF006E"/>
<rect x="238.906" y="318.545" width="19.9091" height="19.9091" fill="#01FF00"/>
<rect x="318.547" y="318.545" width="19.9091" height="19.9091" fill="#01FF00"/>
<rect x="338.453" y="318.545" width="19.9091" height="19.9091" fill="#FF006E"/>
<rect x="358.359" y="318.545" width="19.9091" height="19.9091" fill="#FF006E"/>
<rect x="378.266" y="318.545" width="19.9091" height="19.9091" fill="#FF006E"/>
<rect x="398.188" y="318.545" width="19.9091" height="19.9091" fill="#01FF00"/>
<rect x="39.8125" y="338.454" width="19.9091" height="19.9091" fill="#01FF00"/>
<rect x="119.453" y="338.454" width="19.9091" height="19.9091" fill="#FF006E"/>
<rect x="139.359" y="338.454" width="19.9091" height="19.9091" fill="#01FF00"/>
<rect x="159.266" y="338.454" width="19.9091" height="19.9091" fill="#01FF00"/>
<rect x="179.188" y="338.454" width="19.9091" height="19.9091" fill="#01FF00"/>
<rect x="199.094" y="338.454" width="19.9091" height="19.9091" fill="#01FF00"/>
<rect x="219" y="338.454" width="19.9091" height="19.9091" fill="#01FF00"/>
<rect x="238.906" y="338.454" width="19.9091" height="19.9091" fill="#01FF00"/>
<rect x="318.547" y="338.454" width="19.9091" height="19.9091" fill="#01FF00"/>
<rect x="338.453" y="338.454" width="19.9091" height="19.9091" fill="#FF006E"/>
<rect x="358.359" y="338.454" width="19.9091" height="19.9091" fill="#FF006E"/>
<rect x="378.266" y="338.454" width="19.9091" height="19.9091" fill="#FF006E"/>
<rect x="398.188" y="338.454" width="19.9091" height="19.9091" fill="#01FF00"/>
<rect x="39.8125" y="358.363" width="19.9091" height="19.9091" fill="#01FF00"/>
<rect x="59.7344" y="358.363" width="19.9091" height="19.9091" fill="#01FF00"/>
<rect x="79.6406" y="358.363" width="19.9091" height="19.9091" fill="#01FF00"/>
<rect x="318.547" y="358.363" width="19.9091" height="19.9091" fill="#01FF00"/>
<rect x="338.453" y="358.363" width="19.9091" height="19.9091" fill="#FF006E"/>
<rect x="358.359" y="358.363" width="19.9091" height="19.9091" fill="#FF006E"/>
<rect x="378.266" y="358.363" width="19.9091" height="19.9091" fill="#01FF00"/>
<rect x="79.6406" y="378.272" width="19.9091" height="19.9091" fill="#01FF00"/>
<rect x="318.547" y="378.272" width="19.9091" height="19.9091" fill="#01FF00"/>
<rect x="338.453" y="378.272" width="19.9091" height="19.9091" fill="#FF006E"/>
<rect x="358.359" y="378.272" width="19.9091" height="19.9091" fill="#01FF00"/>
<rect x="79.6406" y="398.182" width="19.9091" height="19.9091" fill="#01FF00"/>
<rect x="99.5469" y="398.182" width="19.9091" height="19.9091" fill="#01FF00"/>
<rect x="119.453" y="398.182" width="19.9091" height="19.9091" fill="#01FF00"/>
<rect x="139.359" y="398.182" width="19.9091" height="19.9091" fill="#01FF00"/>
<rect x="159.266" y="398.182" width="19.9091" height="19.9091" fill="#01FF00"/>
<rect x="179.188" y="398.182" width="19.9091" height="19.9091" fill="#01FF00"/>
<rect x="199.094" y="398.182" width="19.9091" height="19.9091" fill="#01FF00"/>
<rect x="219" y="398.182" width="19.9091" height="19.9091" fill="#01FF00"/>
<rect x="238.906" y="398.182" width="19.9091" height="19.9091" fill="#01FF00"/>
<rect x="258.812" y="398.182" width="19.9091" height="19.9091" fill="#01FF00"/>
<rect x="278.734" y="398.182" width="19.9091" height="19.9091" fill="#01FF00"/>
<rect x="298.641" y="398.182" width="19.9091" height="19.9091" fill="#01FF00"/>
<rect x="318.547" y="398.182" width="19.9091" height="19.9091" fill="#01FF00"/>
<rect x="338.453" y="398.182" width="19.9091" height="19.9091" fill="#01FF00"/>
</svg>
