<svg width="70" height="89" viewBox="0 0 70 89" fill="none" xmlns="http://www.w3.org/2000/svg">
<path id="Subtract" fill-rule="evenodd" clip-rule="evenodd" d="M7.23181 5.32768C7.56564 6.35985 7.69698 7.58215 7.6999 9.10452L1.0373 53.8027C0.211067 60.6791 0.36571 65.7876 1.87002 69.6156C0.415846 65.4876 0.355777 60.2252 1.14933 53.6208L1.15188 53.5996L7.80069 8.99398C7.78979 7.30824 7.60477 6.18293 7.23181 5.32768ZM69.9362 11.0131L58.9318 86.8085L51.0505 80.3041L61.9478 4.69878L69.9362 11.0131ZM45.3866 1.55166L45.3019 1.54986L36.035 64.8084L36.1195 64.8112L45.3866 1.55166ZM32.6169 10.2281L24.402 64.5725C21.419 64.7022 19.6575 64.1527 18.654 63.1817C17.5318 62.096 16.897 60.0304 17.3121 56.1436L25.0675 4.31341L32.6169 10.2281ZM3.47941 0.586494L2.18168 0.524658C2.59464 0.728177 2.97889 0.929214 3.33616 1.13034L3.47941 0.586494ZM18.8024 83.5957C17.2559 82.5943 15.7371 81.3854 14.161 79.937C17.0575 80.8063 20.4326 81.4309 24.3013 81.9148L24.381 81.9248L48.8322 82.4433L55.7521 88.1543L30.7779 87.5208C25.9186 87.0738 22.2599 85.8343 18.8024 83.5957ZM48.2723 3.10132L59.0333 3.33049L48.0724 79.3773L24.608 78.8797C15.9541 77.7908 10.6754 76.0528 7.59847 73.0812C4.00851 69.6138 3.0038 64.0252 4.20576 54.0022L10.8819 9.21316L10.8817 9.09984C10.8771 6.71283 10.577 4.75309 9.50767 3.08289C9.33038 2.80599 9.13585 2.54317 8.92433 2.29229L22.1614 2.92303L14.2556 55.7585L14.2523 55.7893C13.805 59.9329 14.3216 63.2539 16.5006 65.3622C18.6472 67.4392 21.9496 67.8895 25.8751 67.5266L38.7726 67.9489L48.2723 3.10132Z" fill="url(#paint0_linear_2795_170)"/>
<defs>
<linearGradient id="paint0_linear_2795_170" x1="35.2806" y1="0.524658" x2="31.3473" y2="93.1904" gradientUnits="userSpaceOnUse">
<stop stop-color="#4556F0"/>
<stop offset="1" stop-color="#D458DE"/>
</linearGradient>
</defs>
</svg>
