<svg width="57" height="67" viewBox="0 0 57 67" fill="none" xmlns="http://www.w3.org/2000/svg">
<path d="M30.4688 38.25V47.625H44.5312L46.875 45.2812V40.5938L44.5312 38.25H30.4688ZM21.0938 19.5H11.7188L9.375 21.8438V26.5312L11.7188 28.875H21.0938V19.5ZM21.0938 38.25H9.375V31.2188L7.03125 28.875H0V19.5H7.03125L9.375 17.1562V10.125H21.0938V0.75H30.4688V10.125H46.875V19.5H30.4688V28.875H46.875V35.9062L49.2188 38.25H56.25V47.625H49.2188L46.875 49.9688V57H30.4688V66.375H21.0938V57H9.375V47.625H21.0938V38.25Z" fill="white"/>
</svg>
