<svg width="111" height="56" viewBox="0 0 111 56" fill="none" xmlns="http://www.w3.org/2000/svg">
<rect width="111" height="56" fill="#F5F5F5"/>
<g id="Desktop/Home" clip-path="url(#clip0_0_1)">
<rect width="1440" height="9198" transform="translate(-1329 -895)" fill="white"/>
<rect id="Rectangle 160363" x="-1330" y="-280" width="1441" height="8583" fill="#0E0E0E"/>
<g id="Group 1000000945">
<g id="Group 50">
<g id="Group 42">
<rect id="Rectangle 77" x="0.179688" width="18.4689" height="18.4689" fill="#01FF00"/>
<rect id="Rectangle 78" x="0.179688" y="18.469" width="18.4689" height="18.4689" fill="#01FF00"/>
<rect id="Rectangle 79" x="18.6562" y="36.938" width="18.4689" height="18.4689" fill="#01FF00"/>
<rect id="Rectangle 80" x="37.1172" y="18.4688" width="18.4689" height="18.4689" fill="#01FF00"/>
<rect id="Rectangle 81" x="37.1172" width="18.4689" height="18.4689" fill="#01FF00"/>
</g>
<g id="Group 43">
<rect id="Rectangle 77_2" x="110.992" width="18.4689" height="18.4689" transform="rotate(90 110.992 0)" fill="#01FF00"/>
<rect id="Rectangle 78_2" x="92.5156" width="18.4689" height="18.4689" transform="rotate(90 92.5156 0)" fill="#01FF00"/>
<rect id="Rectangle 79_2" x="74.0547" y="18.4688" width="18.4689" height="18.4689" transform="rotate(90 74.0547 18.4688)" fill="#01FF00"/>
<rect id="Rectangle 80_2" x="92.5156" y="36.938" width="18.4689" height="18.4689" transform="rotate(90 92.5156 36.938)" fill="#01FF00"/>
<rect id="Rectangle 81_2" x="110.992" y="36.938" width="18.4689" height="18.4689" transform="rotate(90 110.992 36.938)" fill="#01FF00"/>
</g>
</g>
<g id="Group 49">
<g id="Group 43_2">
<rect id="Rectangle 77_3" x="0.1875" width="18.4689" height="18.4689" transform="rotate(90 0.1875 0)" fill="#01FF00"/>
<rect id="Rectangle 81_3" x="0.1875" y="36.938" width="18.4689" height="18.4689" transform="rotate(90 0.1875 36.938)" fill="#01FF00"/>
</g>
</g>
</g>
</g>
<rect id="Rectangle 160666" x="-3967.5" y="-1897.5" width="4361" height="10709" stroke="#01FF00" stroke-width="19"/>
<defs>
<clipPath id="clip0_0_1">
<rect width="1440" height="9198" fill="white" transform="translate(-1329 -895)"/>
</clipPath>
</defs>
</svg>
