<svg width="35" height="35" viewBox="0 0 35 35" fill="none" xmlns="http://www.w3.org/2000/svg">
<path d="M24.956 31C24.7138 31 24.4733 30.9276 24.267 30.7864L16.4723 25.4474L12.2917 28.485C11.9638 28.723 11.5412 28.783 11.1605 28.6456C10.7803 28.5078 10.4915 28.1897 10.3884 27.7954L8.28928 19.7624L0.788803 16.8664C0.316618 16.684 0.00346441 16.2278 2.85515e-05 15.7173C-0.0034073 15.2068 0.303529 14.7464 0.773423 14.5575L29.293 3.09841C29.4224 3.04289 29.5593 3.01084 29.6974 3.00225C29.7468 2.99928 29.7964 2.99928 29.8457 3.00209C30.1317 3.01927 30.4126 3.1369 30.6318 3.35399C30.6546 3.37646 30.6762 3.39942 30.6966 3.42338C30.8782 3.63287 30.978 3.88829 30.9968 4.1485C31.0014 4.21392 31.0011 4.28017 30.9954 4.34642C30.9914 4.39367 30.9847 4.44076 30.9752 4.48751L26.1613 29.9929C26.0839 30.4026 25.8077 30.7456 25.4262 30.9053C25.2748 30.9688 25.115 31 24.956 31ZM17.1567 22.9216L24.0999 27.6772L27.8457 7.83125L14.3171 20.9766L17.124 22.8993C17.1353 22.9064 17.1461 22.914 17.1567 22.9216ZM11.3768 21.8641L12.3064 25.4211L14.3094 23.9657L11.6867 22.1692C11.5648 22.086 11.4604 21.9822 11.3768 21.8641ZM4.60342 15.6858L9.7536 17.6741C10.1225 17.8165 10.401 18.1298 10.5018 18.5154L11.1549 21.0149C11.1849 20.7266 11.3143 20.4553 11.5245 20.2509L24.4154 7.72551L4.60342 15.6858Z" fill="black"/>
</svg>
