<svg xmlns="http://www.w3.org/2000/svg" width="61" height="64" viewBox="0 0 61 64" fill="none">
  <path d="M54.6938 36.9153V30.7962V24.6772H54.652L54.6938 24.6058V18.485V12.366V6.24696V0.12793H48.7322H42.7706H36.809H30.8475H24.8859H18.9243H12.9627H6.99942V6.24696V12.366V18.485H12.9627H18.9243H24.8859H30.8475H36.809V24.6058L36.8682 24.6772H36.809V27.3892C35.42 26.217 33.8831 25.2067 32.2278 24.3915C29.8971 23.2385 27.3262 22.4825 24.6805 22.1777C23.3576 22.0296 22 21.9913 20.6336 22.0836C19.2672 22.1794 17.8887 22.3919 16.5292 22.749C13.8104 23.4579 11.1577 24.7208 8.81836 26.5357C6.47898 28.3455 4.45118 30.7231 3.03259 33.5257C2.8533 33.874 2.69316 34.2346 2.52781 34.5917C2.36941 34.9522 2.23016 35.3232 2.08743 35.6925C1.95167 36.0653 1.82983 36.4432 1.70798 36.8212C1.5931 37.2027 1.49563 37.5893 1.39641 37.9743C1.30938 38.3627 1.22932 38.7546 1.15273 39.1465C1.08833 39.5402 1.02741 39.9356 0.976931 40.331C0.938638 40.7281 0.903821 41.1253 0.874231 41.5224C0.856825 41.9195 0.844641 42.3167 0.835938 42.7138C0.844641 43.1109 0.856825 43.5081 0.874231 43.9052C0.903821 44.3023 0.938638 44.6995 0.976931 45.0966C1.02741 45.492 1.08833 45.8874 1.15273 46.2811C1.22932 46.673 1.30938 47.0631 1.39641 47.4533C1.49563 47.8382 1.5931 48.2249 1.70798 48.6064C1.83157 48.9844 1.95167 49.3623 2.08743 49.7351C2.23016 50.1044 2.36941 50.4754 2.52781 50.8359C2.69316 51.193 2.8533 51.5536 3.03259 51.9019C4.45118 54.7028 6.48072 57.0804 8.81836 58.8919C11.1595 60.7086 13.8104 61.9697 16.5292 62.6786C17.8887 63.0357 19.2672 63.2482 20.6336 63.344C22 63.4363 23.3576 63.398 24.6805 63.2499C27.328 62.9451 29.8971 62.1891 32.2278 61.036C33.8831 60.2209 35.42 59.2106 36.809 58.0384V61.3949H42.7706H48.7322H54.6938H60.6553V55.2741V49.1551V43.0343H54.6938V36.9153ZM34.031 46.1365C33.4375 47.1764 32.5637 48.0716 31.5333 48.7214C30.5046 49.3745 29.3262 49.7786 28.1443 49.9232C26.9589 50.066 25.7806 49.958 24.6805 49.6602C22.4699 49.0506 20.8494 47.6954 19.9286 46.3507C19.4639 45.6766 19.1697 45.013 18.9992 44.4173C18.8286 43.8164 18.7624 43.2886 18.7624 42.7138C18.7624 42.139 18.8286 41.6112 18.9992 41.0103C19.1715 40.4146 19.4639 39.751 19.9286 39.0769C20.8494 37.7322 22.4699 36.377 24.6805 35.7674C25.7806 35.4678 26.9589 35.3616 28.1443 35.5044C29.3262 35.6472 30.5046 36.0531 31.5333 36.7062C32.5637 37.3559 33.4357 38.2512 34.031 39.2911C34.6281 40.331 34.9449 41.5085 34.9466 42.7138C34.9449 43.9191 34.6281 45.0966 34.031 46.1365Z" fill="#00FF00"/>
</svg>