<svg xmlns="http://www.w3.org/2000/svg" width="60" height="81" viewBox="0 0 60 81" fill="none">
  <path d="M49.2883 65.8242C45.4729 60.5656 41.4521 55.0266 37.6489 49.7854V49.7419C40.8708 45.3037 44.6618 40.0783 47.9202 35.5878C48.0264 35.4415 48.1343 35.2935 48.2405 35.1454C52.0559 29.8868 56.0767 24.3478 59.8799 19.1067C56.9087 19.1067 50.928 19.1067 47.9568 19.1067H41.9952C38.192 24.3478 34.1712 29.8886 30.3558 35.1454C30.2496 35.2917 30.1417 35.4398 30.0355 35.5878C28.133 38.2093 26.0495 40.8586 24.0026 43.6786H18.041H17.9905L18.041 43.6072V37.4864V31.3674V25.2484V19.1293V13.0086V6.88954V0.770508H12.0794H6.11783H0.15625V6.88954V13.0086V19.1293V25.2484V31.3674V37.4864V43.6072L0.217167 43.6786H0.15625V49.7976V55.9167V62.0357V68.1565V74.2755V80.3945H6.11783H12.0794H18.041V74.2755V68.1565V62.0357V55.9167H24.0026C26.4812 59.3307 28.9842 62.4886 31.4036 65.8242C31.5098 65.9705 31.6177 66.1185 31.7239 66.2666C34.9823 70.7553 38.7733 75.9808 41.9952 80.4207C47.3058 80.4207 54.5693 80.4207 59.8799 80.4207C56.6581 75.9825 52.867 70.757 49.6086 66.2666C49.5024 66.1185 49.3963 65.9705 49.2883 65.8242Z" fill="#00FF00"/>
</svg>