<svg xmlns="http://www.w3.org/2000/svg" width="143" height="142" viewBox="0 0 143 142" fill="none">
  <rect x="31.6016" y="12.291" width="6.14517" height="6.14517" fill="#01FF00"/>
  <rect x="37.7422" y="12.291" width="6.14517" height="6.14517" fill="#01FF00"/>
  <rect x="43.8906" y="12.291" width="6.14517" height="6.14517" fill="#01FF00"/>
  <rect x="50.0391" y="12.291" width="6.14517" height="6.14517" fill="#01FF00"/>
  <rect x="56.1875" y="12.291" width="6.14517" height="6.14517" fill="#01FF00"/>
  <rect x="86.9062" y="12.291" width="6.14517" height="6.14517" fill="#01FF00"/>
  <rect x="93.0547" y="12.291" width="6.14517" height="6.14517" fill="#01FF00"/>
  <rect x="99.2031" y="12.291" width="6.14517" height="6.14517" fill="#01FF00"/>
  <rect x="105.352" y="12.291" width="6.14517" height="6.14517" fill="#01FF00"/>
  <rect x="111.484" y="12.291" width="6.14517" height="6.14517" fill="#01FF00"/>
  <rect x="117.633" y="12.291" width="6.14517" height="6.14517" fill="#01FF00"/>
  <rect x="25.4531" y="18.4346" width="6.14517" height="6.14517" fill="#01FF00"/>
  <rect x="56.1875" y="18.4346" width="6.14517" height="6.14517" fill="#01FF00"/>
  <rect x="62.3203" y="18.4346" width="6.14517" height="6.14517" fill="#01FF00"/>
  <rect x="80.7578" y="18.4346" width="6.14517" height="6.14517" fill="#01FF00"/>
  <rect x="117.633" y="18.4346" width="6.14517" height="6.14517" fill="#01FF00"/>
  <rect x="123.781" y="18.4346" width="6.14517" height="6.14517" fill="#01FF00"/>
  <rect x="19.3125" y="24.582" width="6.14517" height="6.14517" fill="#01FF00"/>
  <rect x="50.0391" y="24.582" width="6.14517" height="6.14517" fill="#01FF00"/>
  <rect x="62.3203" y="24.582" width="6.14517" height="6.14517" fill="#01FF00"/>
  <rect x="74.6172" y="24.582" width="6.14517" height="6.14517" fill="#01FF00"/>
  <rect x="111.484" y="24.582" width="6.14517" height="6.14517" fill="#01FF00"/>
  <rect x="123.781" y="24.582" width="6.14517" height="6.14517" fill="#01FF00"/>
  <rect x="13.1719" y="30.7256" width="6.14517" height="6.14517" fill="#01FF00"/>
  <rect x="43.8906" y="30.7256" width="6.14517" height="6.14517" fill="#01FF00"/>
  <rect x="62.3203" y="30.7256" width="6.14517" height="6.14517" fill="#01FF00"/>
  <rect x="74.6172" y="30.7256" width="6.14517" height="6.14517" fill="#01FF00"/>
  <rect x="105.352" y="30.7256" width="6.14517" height="6.14517" fill="#01FF00"/>
  <rect x="123.781" y="30.7256" width="6.14517" height="6.14517" fill="#01FF00"/>
  <rect x="13.1719" y="36.8701" width="6.14517" height="6.14517" fill="#01FF00"/>
  <rect x="19.3125" y="36.8701" width="6.14517" height="6.14517" fill="#01FF00"/>
  <rect x="25.4531" y="36.8701" width="6.14517" height="6.14517" fill="#01FF00"/>
  <rect x="31.6016" y="36.8701" width="6.14517" height="6.14517" fill="#01FF00"/>
  <rect x="37.7422" y="36.8701" width="6.14517" height="6.14517" fill="#01FF00"/>
  <rect x="62.3203" y="36.8701" width="6.14517" height="6.14517" fill="#01FF00"/>
  <rect x="74.6172" y="36.8701" width="6.14517" height="6.14517" fill="#01FF00"/>
  <rect x="80.7578" y="36.8701" width="6.14517" height="6.14517" fill="#01FF00"/>
  <rect x="86.9062" y="36.8701" width="6.14517" height="6.14517" fill="#01FF00"/>
  <rect x="93.0547" y="36.8701" width="6.14517" height="6.14517" fill="#01FF00"/>
  <rect x="99.2031" y="36.8701" width="6.14517" height="6.14517" fill="#01FF00"/>
  <rect x="123.781" y="36.8701" width="6.14517" height="6.14517" fill="#01FF00"/>
  <rect x="13.1719" y="43.0166" width="6.14517" height="6.14517" fill="#01FF00"/>
  <rect x="37.7422" y="43.0166" width="6.14517" height="6.14517" fill="#01FF00"/>
  <rect x="62.3203" y="43.0166" width="6.14517" height="6.14517" fill="#01FF00"/>
  <rect x="74.6172" y="43.0166" width="6.14517" height="6.14517" fill="#01FF00"/>
  <rect x="99.2031" y="43.0166" width="6.14517" height="6.14517" fill="#01FF00"/>
  <rect x="123.781" y="43.0166" width="6.14517" height="6.14517" fill="#01FF00"/>
  <rect x="13.1719" y="49.1611" width="6.14517" height="6.14517" fill="#01FF00"/>
  <rect x="37.7422" y="49.1611" width="6.14517" height="6.14517" fill="#01FF00"/>
  <rect x="62.3203" y="49.1611" width="6.14517" height="6.14517" fill="#01FF00"/>
  <rect x="74.6172" y="49.1611" width="6.14517" height="6.14517" fill="#01FF00"/>
  <rect x="99.2031" y="49.1611" width="6.14517" height="6.14517" fill="#01FF00"/>
  <rect x="123.781" y="49.1611" width="6.14517" height="6.14517" fill="#01FF00"/>
  <rect x="13.1719" y="55.3047" width="6.14517" height="6.14517" fill="#01FF00"/>
  <rect x="37.7422" y="55.3047" width="6.14517" height="6.14517" fill="#01FF00"/>
  <rect x="62.3203" y="55.3047" width="6.14517" height="6.14517" fill="#01FF00"/>
  <rect x="74.6172" y="55.3047" width="6.14517" height="6.14517" fill="#01FF00"/>
  <rect x="99.2031" y="55.3047" width="6.14517" height="6.14517" fill="#01FF00"/>
  <rect x="123.781" y="55.3047" width="6.14517" height="6.14517" fill="#01FF00"/>
  <rect x="13.1719" y="61.4512" width="6.14517" height="6.14517" fill="#01FF00"/>
  <rect x="37.7422" y="61.4512" width="6.14517" height="6.14517" fill="#01FF00"/>
  <rect x="62.3203" y="61.4512" width="6.14517" height="6.14517" fill="#01FF00"/>
  <rect x="74.6172" y="61.4512" width="6.14517" height="6.14517" fill="#01FF00"/>
  <rect x="99.2031" y="61.4512" width="6.14517" height="6.14517" fill="#01FF00"/>
  <rect x="123.781" y="61.4512" width="6.14517" height="6.14517" fill="#01FF00"/>
  <rect x="13.1719" y="67.5986" width="6.14517" height="6.14517" fill="#01FF00"/>
  <rect x="37.7422" y="67.5986" width="6.14517" height="6.14517" fill="#01FF00"/>
  <rect x="62.3203" y="67.5986" width="6.14517" height="6.14517" fill="#01FF00"/>
  <rect x="74.6172" y="67.5986" width="6.14517" height="6.14517" fill="#01FF00"/>
  <rect x="99.2031" y="67.5986" width="6.14517" height="6.14517" fill="#01FF00"/>
  <rect x="123.781" y="67.5986" width="6.14517" height="6.14517" fill="#01FF00"/>
  <rect x="13.1719" y="73.7422" width="6.14517" height="6.14517" fill="#01FF00"/>
  <rect x="37.7422" y="73.7422" width="6.14517" height="6.14517" fill="#01FF00"/>
  <rect x="62.3203" y="73.7422" width="6.14517" height="6.14517" fill="#01FF00"/>
  <rect x="74.6172" y="73.7422" width="6.14517" height="6.14517" fill="#01FF00"/>
  <rect x="99.2031" y="73.7422" width="6.14517" height="6.14517" fill="#01FF00"/>
  <rect x="123.781" y="73.7422" width="6.14517" height="6.14517" fill="#01FF00"/>
  <rect x="13.1719" y="79.8867" width="6.14517" height="6.14517" fill="#01FF00"/>
  <rect x="37.7422" y="79.8867" width="6.14517" height="6.14517" fill="#01FF00"/>
  <rect x="62.3203" y="79.8867" width="6.14517" height="6.14517" fill="#01FF00"/>
  <rect x="68.4688" y="79.8867" width="6.14517" height="6.14517" fill="#01FF00"/>
  <rect x="74.6172" y="79.8867" width="6.14517" height="6.14517" fill="#01FF00"/>
  <rect x="99.2031" y="79.8867" width="6.14517" height="6.14517" fill="#01FF00"/>
  <rect x="123.781" y="79.8867" width="6.14517" height="6.14517" fill="#01FF00"/>
  <rect x="13.1719" y="86.0332" width="6.14517" height="6.14517" fill="#01FF00"/>
  <rect x="37.7422" y="86.0332" width="6.14517" height="6.14517" fill="#01FF00"/>
  <rect x="56.1875" y="86.0332" width="6.14517" height="6.14517" fill="#01FF00"/>
  <rect x="74.6172" y="86.0332" width="6.14517" height="6.14517" fill="#01FF00"/>
  <rect x="99.2031" y="86.0332" width="6.14517" height="6.14517" fill="#01FF00"/>
  <rect x="123.781" y="86.0332" width="6.14517" height="6.14517" fill="#01FF00"/>
  <rect x="13.1719" y="92.1777" width="6.14517" height="6.14517" fill="#01FF00"/>
  <rect x="37.7422" y="92.1777" width="6.14517" height="6.14517" fill="#01FF00"/>
  <rect x="50.0391" y="92.1777" width="6.14517" height="6.14517" fill="#01FF00"/>
  <rect x="74.6172" y="92.1777" width="6.14517" height="6.14517" fill="#01FF00"/>
  <rect x="99.2031" y="92.1777" width="6.14517" height="6.14517" fill="#01FF00"/>
  <rect x="123.781" y="92.1777" width="6.14517" height="6.14517" fill="#01FF00"/>
  <rect x="13.1719" y="98.3213" width="6.14517" height="6.14517" fill="#01FF00"/>
  <rect x="37.7422" y="98.3213" width="6.14517" height="6.14517" fill="#01FF00"/>
  <rect x="43.8906" y="98.3213" width="6.14517" height="6.14517" fill="#01FF00"/>
  <rect x="74.6172" y="98.3213" width="6.14517" height="6.14517" fill="#01FF00"/>
  <rect x="99.2031" y="98.3213" width="6.14517" height="6.14517" fill="#01FF00"/>
  <rect x="123.781" y="98.3213" width="6.14517" height="6.14517" fill="#01FF00"/>
  <rect x="13.1719" y="104.468" width="6.14517" height="6.14517" fill="#01FF00"/>
  <rect x="37.7422" y="104.468" width="6.14517" height="6.14517" fill="#01FF00"/>
  <rect x="43.8906" y="104.468" width="6.14517" height="6.14517" fill="#01FF00"/>
  <rect x="50.0391" y="104.468" width="6.14517" height="6.14517" fill="#01FF00"/>
  <rect x="56.1875" y="104.468" width="6.14517" height="6.14517" fill="#01FF00"/>
  <rect x="62.3203" y="104.468" width="6.14517" height="6.14517" fill="#01FF00"/>
  <rect x="68.4688" y="104.468" width="6.14517" height="6.14517" fill="#01FF00"/>
  <rect x="74.6172" y="104.468" width="6.14517" height="6.14517" fill="#01FF00"/>
  <rect x="99.2031" y="104.468" width="6.14517" height="6.14517" fill="#01FF00"/>
  <rect x="123.781" y="104.468" width="6.14517" height="6.14517" fill="#01FF00"/>
  <rect x="13.1719" y="110.612" width="6.14517" height="6.14517" fill="#01FF00"/>
  <rect x="19.3125" y="110.612" width="6.14517" height="6.14517" fill="#01FF00"/>
  <rect x="25.4531" y="110.612" width="6.14517" height="6.14517" fill="#01FF00"/>
  <rect x="99.2031" y="110.612" width="6.14517" height="6.14517" fill="#01FF00"/>
  <rect x="117.633" y="110.612" width="6.14517" height="6.14517" fill="#01FF00"/>
  <rect x="25.4531" y="116.759" width="6.14517" height="6.14517" fill="#01FF00"/>
  <rect x="99.2031" y="116.759" width="6.14517" height="6.14517" fill="#01FF00"/>
  <rect x="111.484" y="116.759" width="6.14517" height="6.14517" fill="#01FF00"/>
  <rect x="25.4531" y="122.903" width="6.14517" height="6.14517" fill="#01FF00"/>
  <rect x="31.6016" y="122.903" width="6.14517" height="6.14517" fill="#01FF00"/>
  <rect x="37.7422" y="122.903" width="6.14517" height="6.14517" fill="#01FF00"/>
  <rect x="43.8906" y="122.903" width="6.14517" height="6.14517" fill="#01FF00"/>
  <rect x="50.0391" y="122.903" width="6.14517" height="6.14517" fill="#01FF00"/>
  <rect x="56.1875" y="122.903" width="6.14517" height="6.14517" fill="#01FF00"/>
  <rect x="62.3203" y="122.903" width="6.14517" height="6.14517" fill="#01FF00"/>
  <rect x="68.4688" y="122.903" width="6.14517" height="6.14517" fill="#01FF00"/>
  <rect x="74.6172" y="122.903" width="6.14517" height="6.14517" fill="#01FF00"/>
  <rect x="80.7578" y="122.903" width="6.14517" height="6.14517" fill="#01FF00"/>
  <rect x="86.9062" y="122.903" width="6.14517" height="6.14517" fill="#01FF00"/>
  <rect x="93.0547" y="122.903" width="6.14517" height="6.14517" fill="#01FF00"/>
  <rect x="99.2031" y="122.903" width="6.14517" height="6.14517" fill="#01FF00"/>
  <rect x="105.352" y="122.903" width="6.14517" height="6.14517" fill="#01FF00"/>
</svg>