<svg width="235" height="55" viewBox="0 0 235 55" fill="none" xmlns="http://www.w3.org/2000/svg">
<path d="M34.096 40.0072L24.3095 44.2741V43.8435C22.4305 44.3132 20.3167 44.5872 18.3594 44.7047C9.12096 44.6264 1.83985 39.7723 1.72241 34.057V31.9431C4.73664 36.3275 10.9217 39.3025 18.3594 39.1851C20.8647 39.3025 23.4483 38.9111 25.6013 38.3239L26.4625 36.21C23.9181 36.9929 21.0996 37.5018 18.3594 37.5018C9.12096 37.5018 1.83985 32.6869 1.72241 26.8542V25.1318C4.73664 29.2029 10.9217 32.1389 18.3594 31.9431C21.7259 32.1389 24.975 31.4343 27.7543 30.2207L28.185 28.1069C25.4839 29.5161 21.9999 30.3382 18.3985 30.2207C9.16011 30.3382 1.879 25.5232 1.76156 19.5731V17.8507C4.77578 22.0001 10.9608 24.9752 18.3985 25.0926C22.6263 24.9752 26.6191 23.84 29.9074 22.1176L30.338 19.5731C27.3629 21.7652 23.0177 23.2136 18.3985 23.4094C9.16011 23.2136 1.879 18.3596 1.76156 12.3311C1.83985 6.57669 9.16011 1.76176 18.3985 1.68347C23.8789 1.76176 29.007 3.67991 32.0212 6.81157L32.3344 7.32046H34.4874L34.1743 6.81157C31.16 2.70127 25.0924 0.000204073 18.3985 0.000204073C8.14232 -0.0389417 0 5.55891 0 12.292V12.7226V34.4485C0.352312 41.025 8.2989 46.3879 18.3202 46.3879C24.9359 46.4271 30.9252 43.8043 34.096 40.0072Z" fill="white"/>
<path d="M30.1027 54.999L33.5475 40.3585L23.6437 44.6645L29.6721 19.298H18.085L21.0992 6.81055H58.0919L55.0777 19.298H43.0208L40.4372 26.1877L53.7859 20.5898L30.1027 54.999ZM36.1312 37.3834L34.4087 45.9955L48.6187 24.5044L36.9924 29.6717L42.1596 17.6148H53.7859L55.9389 8.57211H22.3519L20.1988 17.6148H31.8251L26.2273 41.6894L36.1312 37.3834Z" fill="white"/>
<path d="M82.6364 15.2278C82.6755 16.5979 82.2449 17.6548 81.3837 18.4378C80.5225 19.2207 79.3481 19.6121 77.8215 19.6121C76.2948 19.6121 75.0421 19.1032 74.1026 18.1246C73.1631 17.1459 72.6934 15.8541 72.6934 14.2883V11.7438C72.6934 10.178 73.1631 8.88619 74.0635 7.90754C75.003 6.9289 76.2165 6.42001 77.704 6.42001C79.2698 6.42001 80.4834 6.81146 81.3837 7.55523C82.2841 8.33815 82.7147 9.39508 82.6755 10.7652V10.8043H80.1702C80.1702 9.98227 79.9745 9.35594 79.583 8.96448C79.1916 8.57302 78.5652 8.3773 77.7432 8.3773C76.9603 8.3773 76.3731 8.69046 75.9425 9.31679C75.5119 9.94312 75.277 10.726 75.277 11.7047V14.2883C75.277 15.2669 75.5119 16.089 75.9425 16.7153C76.4122 17.3417 77.0385 17.6548 77.8606 17.6548C78.6435 17.6548 79.1916 17.4591 79.583 17.0676C79.9745 16.6762 80.1702 16.0499 80.1702 15.2278H82.6364ZM96.8071 14.1709C96.8071 15.7367 96.2983 17.0677 95.3196 18.0854C94.341 19.1032 93.0492 19.6121 91.4442 19.6121C89.8392 19.6121 88.5865 19.1032 87.5688 18.0854C86.5901 17.0677 86.0812 15.7367 86.0812 14.1709V11.8613C86.0812 10.2954 86.5901 9.00363 87.5688 7.94669C88.5474 6.9289 89.8392 6.38086 91.405 6.38086C93.01 6.38086 94.3018 6.88975 95.2805 7.94669C96.2983 8.96448 96.768 10.2954 96.768 11.8613L96.8071 14.1709ZM94.2235 11.8221C94.2235 10.8043 93.9887 10.0214 93.4798 9.35594C92.9709 8.72961 92.3054 8.3773 91.405 8.3773C90.5438 8.3773 89.8392 8.69046 89.3695 9.35594C88.8997 9.98227 88.6257 10.8043 88.6257 11.8221V14.1317C88.6257 15.1495 88.8606 15.9716 89.3695 16.637C89.8392 17.2634 90.5438 17.6157 91.405 17.6157C92.3054 17.6157 92.9709 17.3025 93.4798 16.637C93.9887 16.0107 94.2235 15.1495 94.2235 14.1317V11.8221ZM103.462 19.4164H100.878V6.57659H103.462V19.4164ZM118.298 19.4164H115.715L110.547 10.7652H110.508V19.4164H107.925V6.57659H110.508L115.675 15.2278H115.715V6.57659H118.298V19.4164ZM131.255 8.57302H127.576V19.4164H124.992V8.57302H121.391V6.57659H131.255V8.57302ZM141.903 13.7794H137.127V17.4591H142.803V19.4164H134.583V6.57659H142.803V8.57302H137.166V11.783H141.942V13.7794H141.903ZM149.067 17.4591H154.821V19.4164H146.483V6.57659H149.067V17.4591ZM165.782 13.7794H161.006V17.4591H166.682V19.4164H158.462V6.57659H166.682V8.57302H161.045V11.783H165.821V13.7794H165.782ZM180.227 17.694C179.835 18.2029 179.248 18.6726 178.426 19.0641C177.643 19.4555 176.625 19.6513 175.373 19.6513C173.807 19.6513 172.554 19.1815 171.576 18.2029C170.597 17.2242 170.088 15.9716 170.088 14.4057V11.7047C170.088 10.1389 170.558 8.88619 171.536 7.90754C172.476 6.9289 173.729 6.42001 175.216 6.42001C176.782 6.42001 177.995 6.81146 178.818 7.55523C179.64 8.299 180.07 9.27765 180.031 10.5303V10.5694H177.604C177.604 9.90397 177.408 9.35594 177.017 8.96448C176.625 8.57302 176.038 8.3773 175.294 8.3773C174.511 8.3773 173.885 8.69046 173.376 9.27764C172.907 9.90398 172.672 10.6869 172.672 11.6264V14.3274C172.672 15.3061 172.907 16.089 173.415 16.7153C173.924 17.3417 174.59 17.6157 175.412 17.6157C176.038 17.6157 176.508 17.5374 176.86 17.42C177.213 17.3025 177.487 17.1459 177.682 16.9502V14.4449H175.216V12.6442H180.266V17.694H180.227ZM186.882 14.2883V19.4164H184.298V6.57659H188.761C190.209 6.57659 191.383 6.9289 192.205 7.59438C193.027 8.25986 193.458 9.19935 193.458 10.3737C193.458 11.0392 193.301 11.5872 192.949 12.0961C192.597 12.5659 192.088 12.9574 191.422 13.2705C192.166 13.5054 192.714 13.8577 193.067 14.4057C193.38 14.9146 193.575 15.5801 193.575 16.363V17.3025C193.575 17.6548 193.615 18.0463 193.732 18.4378C193.81 18.8292 194.006 19.1032 194.241 19.299V19.4947H191.579C191.344 19.299 191.188 18.9858 191.109 18.5552C191.031 18.1246 190.992 17.694 190.992 17.3025V16.4022C190.992 15.7758 190.835 15.2669 190.483 14.9146C190.131 14.5623 189.622 14.3666 188.995 14.3666H186.882V14.2883ZM186.882 12.331H188.721C189.426 12.331 189.974 12.1744 190.326 11.8613C190.679 11.5481 190.874 11.1175 190.874 10.4912C190.874 9.90398 190.679 9.43423 190.326 9.08191C189.974 8.7296 189.465 8.57302 188.761 8.57302H186.882V12.331ZM204.38 16.6762H200.23L199.369 19.4555H196.668L201.013 6.61574H203.636L207.942 19.4555H205.241L204.38 16.6762ZM200.857 14.6406H203.753L202.344 10.0997H202.305L200.857 14.6406ZM213.657 14.7581V19.4164H211.074V6.57659H216.006C217.494 6.57659 218.629 6.96804 219.49 7.71181C220.351 8.45558 220.743 9.47338 220.743 10.6869C220.743 11.9004 220.312 12.9182 219.49 13.662C218.629 14.4057 217.494 14.7972 216.006 14.7972H213.657V14.7581ZM213.657 12.8008H216.006C216.711 12.8008 217.259 12.605 217.65 12.2136C218.002 11.8221 218.198 11.3132 218.198 10.726C218.198 10.0997 218.002 9.59081 217.65 9.19935C217.298 8.80789 216.75 8.61216 216.006 8.61216H213.657V12.8008ZM234.874 19.4164H232.291V14.0926H227.045V19.4164H224.462V6.57659H227.045V12.0961H232.291V6.57659H234.874V19.4164Z" fill="white"/>
<path d="M77.3914 40.3974H75.7864V31.9419H72.8896V30.5718H80.2882V31.9419H77.3914V40.3974ZM88.1565 40.3974H86.5515V35.8173C86.5515 35.2302 86.4341 34.7996 86.1992 34.5255C85.9643 34.2515 85.612 34.0949 85.1031 34.0949C84.4377 34.0949 83.9679 34.2907 83.6547 34.6821C83.3416 35.0736 83.185 35.7391 83.185 36.6785V40.3582H81.6192V29.9063H83.185V32.5682C83.185 32.9988 83.1458 33.4294 83.1067 33.9383H83.2241C83.4199 33.586 83.733 33.312 84.1245 33.1163C84.5159 32.9206 84.9465 32.8031 85.4554 32.8031C87.2561 32.8031 88.1565 33.7035 88.1565 35.5433V40.3974ZM93.5978 40.5148C92.4234 40.5148 91.523 40.1625 90.8967 39.497C90.2312 38.8316 89.9181 37.8921 89.9181 36.7177C89.9181 35.5042 90.2312 34.5647 90.8184 33.86C91.4056 33.1554 92.2668 32.8031 93.3237 32.8031C94.3024 32.8031 95.0853 33.1163 95.6333 33.7035C96.2205 34.2907 96.4945 35.1127 96.4945 36.1697V37.0309H91.523C91.5622 37.7355 91.7579 38.3227 92.1102 38.675C92.4625 39.0664 93.0106 39.2622 93.6761 39.2622C94.1067 39.2622 94.5373 39.223 94.8896 39.1447C95.281 39.0664 95.6725 38.9099 96.1031 38.7141V40.0059C95.7116 40.2017 95.3202 40.3191 94.9287 40.3974C94.5764 40.4757 94.1067 40.5148 93.5978 40.5148ZM93.3237 34.0166C92.8148 34.0166 92.4234 34.1732 92.1102 34.4864C91.7971 34.7995 91.6405 35.2693 91.5622 35.8956H94.9287C94.9287 35.2693 94.7721 34.7995 94.4981 34.4864C94.2241 34.1732 93.8326 34.0166 93.3237 34.0166ZM105.576 34.1341H103.776V40.3974H102.171V34.1341H100.957V33.3903L102.171 32.9206V32.4508C102.171 31.5896 102.366 30.9241 102.797 30.4935C103.228 30.0629 103.854 29.8672 104.676 29.8672C105.224 29.8672 105.772 29.9455 106.32 30.1412L105.89 31.3547C105.498 31.2373 105.146 31.159 104.754 31.159C104.402 31.159 104.128 31.2764 103.971 31.4722C103.815 31.707 103.737 32.0202 103.737 32.4508V32.9206H105.537L105.576 34.1341ZM112.114 40.3974L111.879 39.4188H111.801C111.566 39.7711 111.253 40.0451 110.861 40.2408C110.47 40.4365 110 40.554 109.491 40.554C108.591 40.554 107.925 40.3191 107.455 39.8885C106.986 39.4579 106.79 38.7533 106.79 37.8529V32.9597H108.395V37.5398C108.395 38.1269 108.512 38.5184 108.747 38.8316C108.982 39.1056 109.334 39.2622 109.843 39.2622C110.509 39.2622 110.978 39.0664 111.292 38.675C111.605 38.2835 111.761 37.618 111.761 36.6785V32.9597H113.366V40.3974H112.114ZM118.377 39.223C118.768 39.223 119.16 39.1447 119.551 39.0273V40.2017C119.395 40.28 119.16 40.3583 118.886 40.3974C118.612 40.4365 118.338 40.4757 118.025 40.4757C116.537 40.4757 115.793 39.6928 115.793 38.1269V34.1341H114.776V33.4295L115.872 32.8423L116.42 31.2764H117.398V32.9206H119.512V34.1341H117.398V38.1269C117.398 38.5184 117.477 38.7924 117.672 38.9881C117.79 39.1447 118.064 39.223 118.377 39.223ZM126.245 40.3974L126.01 39.4188H125.932C125.697 39.7711 125.384 40.0451 124.993 40.2408C124.601 40.4365 124.131 40.554 123.623 40.554C122.722 40.554 122.057 40.3191 121.587 39.8885C121.156 39.4579 120.922 38.7533 120.922 37.8529V32.9597H122.526V37.5398C122.526 38.1269 122.644 38.5184 122.879 38.8316C123.114 39.1056 123.466 39.2622 123.975 39.2622C124.64 39.2622 125.11 39.0664 125.423 38.675C125.736 38.2835 125.893 37.618 125.893 36.6785V32.9597H127.498V40.3974H126.245ZM133.526 32.8031C133.84 32.8031 134.114 32.8423 134.309 32.8814L134.153 34.369C133.918 34.3298 133.683 34.2907 133.448 34.2907C132.822 34.2907 132.313 34.4864 131.921 34.917C131.53 35.3476 131.334 35.8565 131.334 36.522V40.3974H129.768V32.9597H131.021L131.217 34.2515H131.295C131.53 33.8209 131.882 33.4686 132.274 33.1946C132.626 32.9597 133.057 32.8031 133.526 32.8031ZM138.655 40.5148C137.48 40.5148 136.58 40.1625 135.953 39.497C135.288 38.8316 134.975 37.8921 134.975 36.7177C134.975 35.5042 135.288 34.5647 135.875 33.86C136.462 33.1554 137.324 32.8031 138.381 32.8031C139.359 32.8031 140.142 33.1163 140.69 33.7035C141.277 34.2907 141.551 35.1127 141.551 36.1697V37.0309H136.58C136.619 37.7355 136.815 38.3227 137.167 38.675C137.519 39.0664 138.067 39.2622 138.733 39.2622C139.163 39.2622 139.594 39.223 139.946 39.1447C140.338 39.0664 140.729 38.9099 141.16 38.7141V40.0059C140.768 40.2017 140.377 40.3191 139.985 40.3974C139.594 40.4757 139.163 40.5148 138.655 40.5148ZM138.381 34.0166C137.872 34.0166 137.48 34.1732 137.167 34.4864C136.854 34.7995 136.697 35.2693 136.619 35.8956H139.985C139.985 35.2693 139.829 34.7995 139.555 34.4864C139.242 34.1732 138.85 34.0166 138.381 34.0166ZM153.491 36.6394C153.491 37.8529 153.178 38.7924 152.551 39.497C151.925 40.1625 151.064 40.5148 149.968 40.5148C149.263 40.5148 148.676 40.3583 148.128 40.0451C147.58 39.7319 147.188 39.2622 146.914 38.675C146.64 38.0878 146.484 37.4223 146.484 36.6394C146.484 35.4259 146.797 34.4864 147.423 33.8209C148.05 33.1554 148.911 32.8031 150.046 32.8031C151.103 32.8031 151.964 33.1554 152.59 33.86C153.217 34.5647 153.491 35.465 153.491 36.6394ZM148.089 36.6394C148.089 38.3618 148.715 39.223 150.007 39.223C151.259 39.223 151.886 38.3618 151.886 36.6394C151.886 34.9561 151.259 34.0949 150.007 34.0949C149.341 34.0949 148.872 34.3298 148.558 34.7604C148.245 35.191 148.089 35.8173 148.089 36.6394ZM159.049 34.1341H157.249V40.3974H155.644V34.1341H154.43V33.3903L155.644 32.9206V32.4508C155.644 31.5896 155.84 30.9241 156.27 30.4935C156.701 30.0629 157.327 29.8672 158.149 29.8672C158.697 29.8672 159.245 29.9455 159.793 30.1412L159.363 31.3547C158.971 31.2373 158.619 31.159 158.227 31.159C157.875 31.159 157.601 31.2764 157.445 31.4722C157.288 31.6679 157.21 32.0202 157.21 32.4508V32.9206H159.01V34.1341H159.049ZM170.167 40.3974H168.562V35.8173C168.562 35.2302 168.444 34.8387 168.249 34.5255C168.053 34.2515 167.701 34.0949 167.231 34.0949C166.605 34.0949 166.174 34.2907 165.9 34.6821C165.626 35.0736 165.469 35.7391 165.469 36.6785V40.3974H163.904V32.9597H165.156L165.391 33.9383H165.469C165.665 33.586 165.978 33.312 166.37 33.1163C166.761 32.9206 167.192 32.8423 167.662 32.8423C168.797 32.8423 169.58 33.2337 169.932 34.0166H170.049C170.284 33.6643 170.597 33.3512 170.989 33.1554C171.38 32.9597 171.85 32.8423 172.359 32.8423C173.259 32.8423 173.886 33.0771 174.316 33.5077C174.708 33.9383 174.943 34.643 174.943 35.5433V40.3974H173.377V35.8173C173.377 35.2302 173.259 34.8387 173.064 34.5255C172.829 34.2515 172.516 34.0949 172.046 34.0949C171.42 34.0949 170.989 34.2907 170.715 34.6821C170.441 35.0736 170.284 35.6608 170.284 36.4437V40.3974H170.167ZM183.633 36.6394C183.633 37.8529 183.32 38.7924 182.694 39.497C182.067 40.1625 181.206 40.5148 180.11 40.5148C179.405 40.5148 178.818 40.3583 178.27 40.0451C177.722 39.7319 177.331 39.2622 177.057 38.675C176.783 38.0878 176.626 37.4223 176.626 36.6394C176.626 35.4259 176.939 34.4864 177.565 33.8209C178.192 33.1554 179.053 32.8031 180.188 32.8031C181.245 32.8031 182.106 33.1554 182.733 33.86C183.32 34.5647 183.633 35.465 183.633 36.6394ZM178.231 36.6394C178.231 38.3618 178.857 39.223 180.149 39.223C181.402 39.223 182.028 38.3618 182.028 36.6394C182.028 34.9561 181.402 34.0949 180.149 34.0949C179.484 34.0949 179.014 34.3298 178.701 34.7604C178.387 35.191 178.231 35.8173 178.231 36.6394ZM192.01 40.3974H190.405V35.8173C190.405 35.2302 190.288 34.7996 190.053 34.5255C189.818 34.2515 189.466 34.0949 188.957 34.0949C188.291 34.0949 187.782 34.2907 187.508 34.6821C187.234 35.0736 187.039 35.7391 187.039 36.6785V40.3974H185.473V32.9597H186.726L186.96 33.9383H187.039C187.274 33.586 187.587 33.312 187.978 33.1163C188.37 32.9206 188.839 32.8423 189.348 32.8423C191.149 32.8423 192.01 33.7426 192.01 35.5825V40.3974ZM197.451 40.5148C196.277 40.5148 195.377 40.1625 194.75 39.497C194.085 38.8316 193.772 37.8921 193.772 36.7177C193.772 35.5042 194.085 34.5647 194.672 33.86C195.259 33.1554 196.121 32.8031 197.177 32.8031C198.156 32.8031 198.939 33.1163 199.487 33.7035C200.074 34.2907 200.348 35.1127 200.348 36.1697V37.0309H195.377C195.416 37.7355 195.612 38.3227 195.964 38.675C196.316 39.0664 196.864 39.2622 197.53 39.2622C197.96 39.2622 198.391 39.223 198.743 39.1447C199.096 39.0664 199.526 38.9099 199.957 38.7141V40.0059C199.565 40.2017 199.174 40.3191 198.782 40.3974C198.391 40.4757 197.96 40.5148 197.451 40.5148ZM197.138 34.0166C196.629 34.0166 196.238 34.1732 195.925 34.4864C195.612 34.7995 195.455 35.2693 195.377 35.8956H198.743C198.743 35.2693 198.587 34.7995 198.313 34.4864C198.039 34.1732 197.647 34.0166 197.138 34.0166ZM200.74 32.9597H202.462L203.989 37.1874C204.224 37.7746 204.38 38.3618 204.459 38.8707H204.498C204.537 38.6358 204.615 38.3227 204.733 37.9704C204.85 37.618 205.398 35.9348 206.455 32.9597H208.177L205.007 41.376C204.419 42.9027 203.48 43.6856 202.11 43.6856C201.758 43.6856 201.405 43.6465 201.092 43.5682V42.3155C201.327 42.3547 201.601 42.3938 201.914 42.3938C202.658 42.3938 203.206 41.9632 203.519 41.0629L203.793 40.3582L200.74 32.9597Z" fill="white"/>
</svg>
