<svg xmlns="http://www.w3.org/2000/svg" width="50" height="63" viewBox="0 0 50 63" fill="none">
<path d="M38.1066 36.5875L37.7513 36.2285L37.396 36.5875L25.3673 48.7392L19.1789 42.4873L31.2146 30.328L31.5628 29.9762L31.2146 29.6245L25.7068 24.0601L25.3515 23.7011L24.9961 24.0601L7.04455 42.1954L6.69637 42.5472L7.04456 42.8989L24.9468 60.9842L25.3022 61.3432L25.6575 60.9842L43.6088 42.8489L43.957 42.4971L43.6088 42.1454L38.1066 36.5875Z" stroke="#C0C0C0"/>
<path d="M49.3017 25.6322L49.3025 25.4256L49.1571 25.2787L25.7673 1.64826L25.4119 1.28925L25.0565 1.64826L1.6007 25.3447L1.45466 25.4922L1.45607 25.6998L1.53086 36.7756L1.53899 37.9799L2.38619 37.124L25.3125 13.9633L48.4077 37.2958L49.2589 38.1558L49.2631 36.9458L49.3017 25.6322Z" stroke="#C0C0C0"/>
</svg>